<svg version="1.1" id="Layer_1" xmlns="http://www.w3.org/2000/svg" xmlns:xlink="http://www.w3.org/1999/xlink" x="0px" y="0px"
	 width="100%" viewBox="0 0 1393 691" enable-background="new 0 0 1393 691" xml:space="preserve">
<path fill="#111827" opacity="1.000000" stroke="none" 
	d="
M1009.000000,692.000000 
	C672.706909,692.000000 336.913757,692.000000 1.060322,692.000000 
	C1.060322,461.734467 1.060322,231.468933 1.060322,1.101694 
	C465.209900,1.101694 929.419861,1.101694 1393.814941,1.101694 
	C1393.814941,231.333206 1393.814941,461.666595 1393.814941,692.000000 
	C1265.802002,692.000000 1137.651001,692.000000 1009.000000,692.000000 
M297.444336,164.314056 
	C297.894043,166.905746 298.964081,168.388031 302.067566,168.093506 
	C305.643097,167.754166 309.275543,168.014664 313.437897,168.014664 
	C307.138245,149.332565 301.040649,131.249832 294.917877,113.092285 
	C289.866211,113.092285 285.199982,113.276672 280.557434,113.024612 
	C277.673004,112.868011 276.546753,113.974365 275.693115,116.628380 
	C271.873779,128.502823 267.821716,140.302505 263.839691,152.124466 
	C262.106049,157.271408 260.338684,162.406982 258.427490,168.014664 
	C262.804382,168.014664 266.491241,168.303635 270.092285,167.873734 
	C271.551239,167.699554 273.542664,166.234512 274.061646,164.884109 
	C277.108948,156.954956 276.986389,156.907852 285.696838,156.907867 
	C286.529449,156.907867 287.386780,157.038635 288.190674,156.886719 
	C293.600311,155.864426 296.621002,158.017502 297.444336,164.314056 
M396.763672,113.555031 
	C387.968872,113.555031 379.174072,113.555031 370.115417,113.555031 
	C370.115417,131.482056 370.115417,149.568161 370.115417,167.687073 
	C374.591675,167.687073 378.988739,167.687073 383.890137,167.687073 
	C383.890137,161.988892 383.890137,156.603577 383.890137,151.014374 
	C387.547638,151.014374 390.692413,151.036514 393.836761,151.010300 
	C404.212280,150.923828 411.769165,144.488388 412.774017,134.904327 
	C413.920532,123.969353 408.290649,116.141228 396.763672,113.555031 
M454.768921,157.228653 
	C455.253204,152.646561 456.461975,148.000488 456.064056,143.496323 
	C455.338837,135.287613 450.563873,129.505661 442.550537,127.334351 
	C434.057648,125.033081 425.796997,125.888046 419.638397,132.986862 
	C413.456482,140.112625 413.187805,148.575439 416.334930,156.993286 
	C419.263763,164.827271 425.689362,168.473862 433.822723,168.921921 
	C442.830261,169.418152 450.194824,166.494064 454.768921,157.228653 
M562.559570,131.937027 
	C554.464966,124.746704 545.286377,125.049431 535.943726,128.538849 
	C530.707581,130.494507 528.075684,135.281631 528.505493,140.375656 
	C528.970764,145.889008 532.276001,149.152756 537.290649,150.685684 
	C540.608154,151.699814 544.172546,151.933121 547.451721,153.035553 
	C549.383972,153.685150 550.975098,155.349716 552.719604,156.557770 
	C550.490723,157.489120 548.311340,158.939331 546.014526,159.158325 
	C544.624756,159.290848 543.058838,157.505081 541.560730,156.599960 
	C540.655029,156.052750 539.747681,155.132874 538.806335,155.086472 
	C535.183472,154.907898 531.546509,155.014084 527.876587,155.014084 
	C528.428040,160.712296 530.274048,163.849228 534.848938,166.167801 
	C542.223755,169.905380 549.876892,170.038055 557.526184,167.038849 
	C563.709839,164.614304 567.098633,159.684189 566.679932,154.157562 
	C566.285706,148.954819 562.828125,145.634460 555.949829,144.043671 
	C552.396240,143.221817 548.746826,142.771515 545.249695,141.771957 
	C544.068176,141.434235 543.222168,139.923019 542.222778,138.948090 
	C543.349731,137.941132 544.355103,136.337204 545.634094,136.076706 
	C547.271057,135.743317 549.970764,135.853363 550.750427,136.881287 
	C554.959656,142.430710 560.423035,138.985062 566.402405,140.225952 
	C564.953918,136.932480 563.980286,134.718735 562.559570,131.937027 
M487.878845,139.988388 
	C490.838409,139.988388 493.798004,139.988388 497.050903,139.988388 
	C496.576233,133.613419 493.345490,129.961105 488.119537,128.005707 
	C481.661987,125.589523 475.086304,125.635612 468.629639,128.026001 
	C462.661224,130.235641 459.881653,134.325500 460.087677,140.083313 
	C460.280182,145.463440 463.385712,149.201920 469.457275,150.884338 
	C472.803009,151.811417 476.363281,152.024323 479.638428,153.121521 
	C481.352417,153.695724 482.659424,155.484711 484.150269,156.725037 
	C482.380310,157.685242 480.616119,159.388397 478.838806,159.402176 
	C476.963684,159.416733 475.053467,157.863266 473.202667,156.909286 
	C472.148499,156.365952 471.213074,155.168274 470.171112,155.102173 
	C466.578461,154.874252 462.962494,155.014481 457.744080,155.014481 
	C460.155640,158.847580 461.394165,162.020813 463.629150,164.146240 
	C470.759552,170.927216 486.899292,170.614929 494.155823,163.924911 
	C500.788483,157.810135 499.146606,148.162537 490.671814,145.126053 
	C486.340973,143.574341 481.617767,143.148926 477.173828,141.862381 
	C475.861633,141.482498 474.897430,139.900742 473.773773,138.869751 
	C475.074036,137.873047 476.401886,136.029694 477.668304,136.070953 
	C479.754944,136.138962 481.826752,137.366974 483.855591,138.222672 
	C484.954590,138.686203 485.951874,139.390991 487.878845,139.988388 
M514.319092,168.410431 
	C518.318359,168.410431 522.317688,168.410431 526.803528,168.410431 
	C525.910034,164.157730 525.302246,161.264832 524.989380,159.775528 
	C522.211243,157.900009 518.996094,156.822159 518.867554,155.454269 
	C518.300476,149.419342 518.622559,143.300842 518.622559,137.139526 
	C521.279846,136.951324 523.370544,136.803253 525.498474,136.652557 
	C525.498474,133.264816 525.498474,130.216858 525.498474,127.148643 
	C523.031860,127.003090 520.913574,126.878082 518.329102,126.725571 
	C518.329102,123.374603 518.329102,120.299507 518.329102,117.311272 
	C513.593262,117.311272 509.351471,117.311272 504.866577,117.311272 
	C504.866577,120.593216 504.866577,123.573441 504.866577,126.584320 
	C502.887909,126.894333 501.155029,127.165833 499.612183,127.407562 
	C499.612183,130.713608 499.612183,133.634018 499.612183,136.583633 
	C501.525726,136.864487 503.124146,137.099075 504.845917,137.351776 
	C504.845917,143.870422 504.780121,150.197266 504.863922,156.522141 
	C504.952820,163.231766 507.086609,166.010147 514.319092,168.410431 
M337.500000,218.000473 
	C311.126678,218.000473 284.753387,218.000473 258.380066,218.000473 
	C258.381470,218.211868 258.382904,218.423248 258.384308,218.634644 
	C550.728149,218.634644 843.071960,218.634644 1135.415771,218.634644 
	C1135.415771,218.423248 1135.415649,218.211868 1135.415649,218.000473 
	C869.777100,218.000473 604.138550,218.000473 337.500000,218.000473 
M316.843414,157.446121 
	C316.843414,160.881836 316.843414,164.317551 316.843414,167.765228 
	C321.633423,167.765228 325.887054,167.765228 330.243164,167.765228 
	C330.243164,149.470581 330.243164,131.433426 330.243164,113.352951 
	C325.680786,113.352951 321.437988,113.352951 316.843445,113.352951 
	C316.843445,127.899559 316.843445,142.179947 316.843414,157.446121 
M349.926361,120.595108 
	C349.926361,118.171494 349.926361,115.747871 349.926361,113.299576 
	C345.088531,113.299576 340.977478,113.299576 336.576508,113.299576 
	C336.576508,131.569260 336.576508,149.623917 336.576508,167.738129 
	C341.102905,167.738129 345.347107,167.738129 349.926361,167.738129 
	C349.926361,152.161880 349.926361,136.866089 349.926361,120.595108 
M509.861267,267.250885 
	C509.859283,264.591034 509.903748,261.930115 509.844666,259.271545 
	C509.750824,255.047546 506.866425,253.397369 503.313141,253.180817 
	C499.795502,252.966415 496.444763,253.808884 495.472015,258.712219 
	C498.751892,258.358826 501.559692,258.056274 504.367523,257.753754 
	C504.299194,258.093597 504.230865,258.433441 504.162567,258.773285 
	C500.538177,260.485718 496.913818,262.198181 493.985199,263.581879 
	C490.548157,261.873077 487.004456,260.111206 483.460754,258.349335 
	C483.556274,257.966675 483.651825,257.583984 483.747375,257.201294 
	C486.531281,257.746216 489.315186,258.291107 492.674255,258.948608 
	C491.884399,254.495102 489.116882,252.993423 486.149139,253.255508 
	C483.637482,253.477325 479.504639,254.973724 479.228516,256.481079 
	C478.762787,259.023834 480.781097,262.021576 481.755859,264.831207 
	C481.253632,264.888947 479.689331,265.068756 478.047058,265.257538 
	C481.049194,272.394775 488.530426,272.391968 493.868683,265.519348 
	C496.971039,270.962250 505.880280,272.442566 509.861267,267.250885 
M524.485718,386.952332 
	C523.354736,383.949219 521.599609,382.180054 517.479980,383.955658 
	C522.325623,389.107208 522.693787,394.405060 517.169983,399.612091 
	C517.660339,400.011078 518.150696,400.410065 518.641052,400.809021 
	C521.075073,399.309082 523.509094,397.809143 525.321594,396.692200 
	C527.487366,397.911255 529.886414,399.261597 532.285400,400.611908 
	C528.358765,390.408325 528.358765,390.408325 534.589661,383.628387 
	C535.380188,387.487488 536.367188,390.565399 536.575684,393.695221 
	C536.978394,399.741547 538.651917,401.095123 545.325745,399.363983 
	C544.585999,398.210846 543.567993,397.280457 543.379822,396.204956 
	C542.860474,393.235870 542.487549,390.205261 542.500244,387.200867 
	C542.504089,386.295502 544.749084,384.733459 544.632507,384.594757 
	C543.154724,382.837311 541.294250,379.873077 539.806641,380.019226 
	C537.699402,380.226135 535.607727,384.230164 533.892883,383.980225 
	C530.987183,383.556793 528.721008,382.357880 527.007996,385.787994 
	C526.632812,386.539368 525.635498,386.980103 524.485718,386.952332 
M483.947937,379.200134 
	C482.369080,378.695892 480.790192,378.191650 478.889771,377.584717 
	C478.889771,385.509277 478.889771,392.600525 478.889771,399.810852 
	C480.544006,399.810852 481.982452,399.810852 484.095734,399.810852 
	C484.095734,395.968140 484.095734,392.311554 484.095734,388.447479 
	C489.297882,391.779938 489.315796,400.179443 497.202209,399.973480 
	C497.202209,392.293793 497.202209,385.328369 497.202209,378.185669 
	C495.567139,378.185669 494.119232,378.185669 491.951477,378.185669 
	C491.951477,382.129059 491.951477,385.906647 491.951477,390.803925 
	C488.894623,386.396423 486.621857,383.119415 483.947937,379.200134 
M314.533661,21.978046 
	C312.953278,22.084761 311.372864,22.191473 309.723572,22.302839 
	C309.723572,29.740602 309.723572,36.666409 309.723572,44.049049 
	C312.514282,44.049049 314.983582,43.998619 317.450012,44.061394 
	C320.780151,44.146145 324.380310,43.849010 325.108307,40.115765 
	C325.587341,37.659203 324.170380,34.832909 323.397675,31.212782 
	C325.933868,28.080257 325.370667,24.115551 320.837585,22.552256 
	C319.168060,21.976494 317.240997,22.147575 314.533661,21.978046 
M555.728577,254.762268 
	C554.137939,254.121872 552.547302,253.481491 549.737610,252.350311 
	C552.192383,259.589996 554.127319,265.296692 555.812561,270.266937 
	C553.907715,272.174194 552.532410,273.551270 550.603027,275.483154 
	C557.128540,276.566925 558.869324,276.198883 560.264221,272.747253 
	C562.774231,266.536316 564.862610,260.154968 567.230652,253.556442 
	C558.295349,251.903198 562.223022,260.781952 558.165588,263.069366 
	C557.421875,260.533844 556.683350,258.015900 555.728577,254.762268 
M361.413361,43.941788 
	C362.478516,43.680508 363.543671,43.419228 365.048462,43.050110 
	C364.868378,44.364964 364.840179,46.052555 364.602448,46.082619 
	C361.385132,46.489380 358.138672,46.665886 354.322083,46.940948 
	C356.624847,50.251488 359.690643,51.439701 362.954926,50.351242 
	C365.165039,49.614296 368.346802,47.568436 368.552216,45.810921 
	C369.250153,39.839584 368.818909,33.736267 368.818909,28.090176 
	C365.745300,27.729584 363.400391,27.223614 361.057037,27.230873 
	C357.018738,27.243382 354.609558,29.510712 353.865112,33.432930 
	C352.746277,39.327454 354.764130,42.419613 361.413361,43.941788 
M506.242737,400.189636 
	C510.536682,400.895599 514.106873,400.173218 516.203735,394.408783 
	C513.498962,395.244324 511.596527,396.273987 509.687164,396.287079 
	C508.053894,396.298340 506.412628,395.143890 504.774933,394.505035 
	C504.978821,393.971558 505.182739,393.438080 505.386627,392.904602 
	C508.835846,392.904602 512.285034,392.904602 515.960266,392.904602 
	C516.191223,388.904541 515.348938,385.774261 511.681244,384.009918 
	C507.592163,382.042877 503.010254,383.496185 500.998993,387.350677 
	C498.382843,392.364532 500.138855,397.315369 506.242737,400.189636 
M523.856873,269.633850 
	C525.261719,269.762115 526.666565,269.890350 528.368774,270.045776 
	C528.368774,266.021759 528.987000,262.380371 528.155396,259.107300 
	C527.583435,256.856018 525.304565,253.960556 523.244812,253.418289 
	C520.171387,252.609177 516.618958,253.619644 513.151001,253.864395 
	C513.151001,259.136139 513.151001,264.400879 513.151001,269.772308 
	C514.761780,269.772308 516.177063,269.772308 517.923035,269.772308 
	C517.923035,267.391754 517.574646,265.174500 518.022522,263.131805 
	C518.457520,261.147980 519.655518,257.770294 520.612122,257.737579 
	C524.365112,257.609070 523.344116,260.996246 523.507263,263.313660 
	C523.635681,265.136963 523.564026,266.974365 523.856873,269.633850 
M578.129517,397.470856 
	C581.534668,388.626221 571.439819,391.899109 568.454895,386.835297 
	C572.416077,387.641785 575.193542,388.207275 578.579590,388.896667 
	C576.132751,383.327057 571.726074,381.584259 567.373596,384.111664 
	C565.905701,384.964081 564.306396,387.111267 564.352173,388.618561 
	C564.397339,390.104919 566.193115,391.939941 567.688232,392.872955 
	C569.347229,393.908203 571.535278,394.095642 573.492981,394.652222 
	C573.389832,395.272339 573.286682,395.892426 573.183472,396.512543 
	C571.821106,396.271759 570.457886,396.035400 569.096497,395.789124 
	C567.450684,395.491302 565.806458,395.185211 563.795166,394.815338 
	C566.244324,401.219177 571.671204,402.243500 578.129517,397.470856 
M598.652893,268.091644 
	C601.489075,264.370239 602.188965,260.080048 599.105042,256.660553 
	C597.312927,254.673386 593.713135,253.445114 590.926392,253.444595 
	C587.365845,253.443939 584.491455,256.300720 584.592651,259.951172 
	C584.676147,262.964600 585.643066,266.701477 587.631897,268.736633 
	C590.524902,271.697174 594.621826,271.078552 598.652893,268.091644 
M267.396149,31.997561 
	C268.727478,31.548201 270.070007,31.129187 271.387817,30.643211 
	C274.186127,29.611265 275.813751,30.208300 275.757080,33.534122 
	C273.638733,33.979492 271.722076,34.393555 269.800598,34.783932 
	C266.629181,35.428246 264.704315,37.623329 266.038422,40.430046 
	C266.943848,42.334888 269.677307,44.016434 271.873566,44.485630 
	C274.201050,44.982864 276.860260,43.927547 279.838898,43.480637 
	C279.838898,40.047806 279.973328,36.427273 279.800812,32.821423 
	C279.630798,29.268257 277.326477,27.302931 273.991760,27.190624 
	C270.766785,27.082018 267.239563,27.255398 267.396149,31.997561 
M282.956482,36.487228 
	C282.956482,38.953392 282.956482,41.419556 282.956482,44.034100 
	C284.536438,43.952442 285.674713,43.893612 287.106598,43.819603 
	C287.106598,40.687691 286.680511,37.624847 287.272797,34.773537 
	C287.606750,33.165768 289.618256,31.906464 290.874115,30.490196 
	C291.890625,31.954138 293.523529,33.315201 293.788788,34.904533 
	C294.266144,37.764637 293.923645,40.761581 293.923645,45.048473 
	C295.719727,43.691868 297.421448,43.023392 297.457520,42.274708 
	C297.632599,38.638676 297.935913,34.826397 297.011688,31.394932 
	C296.532196,29.614859 293.769714,27.709995 291.735504,27.273252 
	C289.118500,26.711380 286.197296,27.566242 282.956482,27.850357 
	C282.956482,30.270348 282.956482,32.901131 282.956482,36.487228 
M546.478516,253.103745 
	C545.865112,250.706940 544.494385,248.279007 541.982605,249.938354 
	C540.245239,251.086105 538.990356,254.001328 538.830383,256.221222 
	C538.654358,258.662964 540.396118,261.184814 540.567505,263.721375 
	C540.975708,269.763519 542.734863,271.149414 548.825684,269.440704 
	C548.790405,268.975647 548.936707,268.351837 548.689514,268.033417 
	C545.643738,264.109467 542.910645,260.252960 548.659363,256.240814 
	C548.815918,256.131561 547.754578,254.277328 546.478516,253.103745 
M349.779694,41.235558 
	C350.246643,39.339718 351.101349,37.445515 351.109375,35.547729 
	C351.135773,29.317055 345.540710,25.175707 340.523987,28.099514 
	C338.253113,29.423018 335.979736,32.834904 335.940521,35.334393 
	C335.897156,38.098671 337.743439,41.787571 339.975586,43.468170 
	C342.826782,45.614830 346.612427,44.760048 349.779694,41.235558 
M553.573059,403.477966 
	C554.317383,404.377014 555.637451,406.110382 555.721436,406.052460 
	C557.569336,404.777252 560.622742,403.435272 560.778870,401.844391 
	C561.371216,395.808502 561.017395,389.679718 561.017395,383.198853 
	C559.061646,383.354553 557.687195,383.463989 556.072449,383.592529 
	C556.072449,388.810577 556.242004,393.627838 555.972107,398.420319 
	C555.887817,399.915771 554.616150,401.344391 553.573059,403.477966 
M567.745178,437.825653 
	C567.140076,438.578857 566.534973,439.332062 565.918457,440.099426 
	C564.557861,438.903473 563.381897,437.869781 562.205933,436.836121 
	C561.664917,437.067780 561.123901,437.299438 560.582886,437.531097 
	C565.709290,440.769287 563.130737,444.350006 562.418457,448.153381 
	C563.527771,447.141144 564.637146,446.128906 565.737549,445.124817 
	C566.978638,446.241638 568.091736,447.243256 569.204834,448.244873 
	C569.680481,448.139008 570.156189,448.033173 570.631897,447.927307 
	C567.215271,444.202454 566.467896,440.799530 571.733521,437.247772 
	C572.255920,439.823975 572.843750,441.835663 573.040649,443.884888 
	C573.412598,447.756531 573.483459,447.901337 576.199463,447.425964 
	C576.199463,444.120270 576.199463,440.983063 576.199463,436.740631 
	C576.163452,436.699829 575.150330,435.551819 574.995789,435.376678 
	C572.279968,436.145599 570.286804,436.709930 567.745178,437.825653 
M300.916626,386.227875 
	C298.846222,389.497742 296.775818,392.767639 294.701599,396.043518 
	C298.137878,397.312805 300.817047,398.302429 303.948334,399.459076 
	C308.482208,396.777802 303.267303,392.695831 304.339813,389.183960 
	C304.667938,388.109497 304.034607,386.675446 303.594208,385.498627 
	C303.522583,385.307190 302.159454,385.598999 300.916626,386.227875 
M302.377655,269.607513 
	C303.776031,268.582672 305.174408,267.557831 305.559723,267.275421 
	C304.845978,262.462219 304.304840,258.813080 303.763702,255.163956 
	C303.226135,254.940109 302.688568,254.716263 302.151001,254.492432 
	C299.667053,258.345551 297.183136,262.198669 294.700012,266.050537 
	C297.771667,267.253326 299.898438,268.086151 302.377655,269.607513 
M369.231995,397.617432 
	C369.904755,398.425262 370.577515,399.233093 371.297607,400.097717 
	C373.662109,397.144318 373.626007,389.798096 370.776154,383.831787 
	C367.834930,388.374237 365.344421,392.220612 362.324982,396.883881 
	C365.258392,397.125336 366.858765,397.257080 369.231995,397.617432 
M363.465576,266.333405 
	C366.297363,267.358490 369.129120,268.383575 372.141052,269.473877 
	C372.740265,268.591614 373.558289,267.387146 373.760620,267.089203 
	C373.100403,262.559784 372.565002,258.886749 372.029602,255.213699 
	C371.471313,254.958069 370.913025,254.702438 370.354736,254.446808 
	C368.030945,258.170502 365.707184,261.894196 363.465576,266.333405 
M336.979553,263.201569 
	C337.122620,264.532745 337.265717,265.863922 337.408813,267.195099 
	C335.370697,267.009521 333.332581,266.823944 331.294464,266.638397 
	C332.272797,268.378082 333.970001,270.159332 335.485565,270.016235 
	C337.251373,269.849548 339.810760,268.343811 340.361877,266.818085 
	C342.287903,261.486176 337.200562,260.821747 332.994324,258.723480 
	C336.053467,257.903564 337.995392,257.383087 339.937317,256.862610 
	C339.877533,256.384186 339.817749,255.905731 339.757996,255.427292 
	C337.265167,255.304779 334.772369,255.182266 331.827698,255.037537 
	C331.498474,257.813873 331.216522,260.191711 330.903412,262.832153 
	C333.025024,262.832153 334.632538,262.832153 336.979553,263.201569 
M337.946045,396.142670 
	C335.707855,396.466064 333.469635,396.789429 329.485168,397.365112 
	C332.451263,398.593811 334.498291,400.210663 336.271484,399.951782 
	C337.918945,399.711304 340.763611,396.767426 340.508850,396.227478 
	C339.174866,393.400208 337.022644,390.958984 335.072418,388.269928 
	C336.019226,387.994751 337.981201,387.424561 339.943146,386.854340 
	C339.900330,386.372192 339.857513,385.890015 339.814728,385.407867 
	C337.348358,385.407867 334.118439,384.464661 332.628479,385.670807 
	C331.111420,386.898895 331.306976,390.242676 330.752625,392.660065 
	C331.247437,392.386383 331.742218,392.112701 332.237000,391.839020 
	C334.162201,393.004120 336.087372,394.169220 337.946045,396.142670 
M563.118408,318.205780 
	C567.576416,318.538696 566.585876,314.540619 566.856140,312.529541 
	C567.080139,310.863464 565.393616,307.810272 563.933105,307.352936 
	C562.342407,306.854828 559.299255,308.081757 558.190308,309.543579 
	C555.595032,312.964691 557.786255,316.961792 563.118408,318.205780 
M531.757751,254.423660 
	C531.757751,259.525879 531.757751,264.628082 531.757751,270.059418 
	C533.569336,269.933472 534.960693,269.836731 536.601074,269.722656 
	C536.601074,265.214355 536.465759,261.061005 536.641785,256.920898 
	C536.796448,253.281723 535.270081,252.466843 531.757751,254.423660 
M262.037048,30.001272 
	C261.620605,29.089813 261.204193,28.178354 260.787750,27.266895 
	C260.187378,27.873983 259.150452,28.419079 259.054108,29.097740 
	C258.072144,36.012463 261.170471,43.390087 255.729584,49.960716 
	C260.625336,50.488060 262.360016,48.975109 262.103058,44.771297 
	C261.821472,40.164680 262.038025,35.527611 262.037048,30.001272 
M576.992004,254.519669 
	C576.992004,259.593231 576.992004,264.666779 576.992004,269.757324 
	C578.846680,269.757324 580.247498,269.757324 581.720642,269.757324 
	C581.720642,264.230286 581.720642,258.980133 581.720642,253.166107 
	C580.057617,253.383453 578.677490,253.563812 576.992004,254.519669 
M323.995667,270.122070 
	C328.670654,267.424683 330.208160,260.121002 326.324860,256.846619 
	C324.932617,255.672668 320.498016,255.490952 320.036285,256.311188 
	C318.546814,258.957123 317.696899,262.274841 317.667908,265.343689 
	C317.638733,268.431488 319.809875,270.434235 323.995667,270.122070 
M317.219482,392.585388 
	C317.536926,394.188080 317.579712,395.913300 318.228882,397.367981 
	C319.591705,400.422028 324.500488,401.650757 325.913788,398.985291 
	C327.444092,396.099274 327.790863,392.233704 327.496063,388.897675 
	C327.370483,387.476776 324.330658,385.290344 322.570221,385.246216 
	C318.692322,385.149078 317.747223,388.531891 317.219482,392.585388 
M278.310333,269.669464 
	C282.061462,266.431763 281.789795,262.357208 280.254913,258.344116 
	C278.926880,254.871887 274.453705,253.562820 272.786316,256.344482 
	C271.129822,259.108002 270.609039,263.018799 270.855957,266.332184 
	C271.130554,270.016846 274.346283,270.671387 278.310333,269.669464 
M281.181976,393.343292 
	C280.686676,387.178009 278.186981,384.027802 274.510956,385.253906 
	C270.179718,386.698578 269.840332,390.497131 270.193787,394.220123 
	C270.485687,397.294556 271.585480,400.131134 275.484253,400.196075 
	C279.623718,400.265015 280.711182,397.477264 281.181976,393.343292 
M551.354065,447.069275 
	C556.744873,449.203369 556.834290,448.838898 558.917419,443.323273 
	C560.339172,439.558685 558.811646,437.841339 555.835510,437.083832 
	C552.593018,436.258575 550.215149,437.969116 549.860413,441.356476 
	C549.684692,443.034271 550.501587,444.816040 551.354065,447.069275 
M594.410278,313.528809 
	C593.390869,311.351868 592.784363,308.741272 591.162415,307.197083 
	C590.446289,306.515228 587.670288,307.996887 585.829468,308.496338 
	C585.974854,308.848297 586.120239,309.200256 586.265564,309.552216 
	C588.091980,309.552216 589.918335,309.552216 592.541809,309.552216 
	C590.010376,312.588867 584.107727,310.768494 585.589722,315.955444 
	C585.904907,317.058533 589.021301,317.572540 590.928040,317.959503 
	C593.706726,318.523376 594.859924,317.107697 594.410278,313.528809 
M351.966309,399.632355 
	C355.064606,399.632355 358.162903,399.632355 361.261200,399.632355 
	C361.278839,399.264832 361.296478,398.897308 361.314148,398.529785 
	C359.690735,398.208832 358.067322,397.887848 355.983246,397.475800 
	C357.458618,395.687256 359.139862,394.365387 359.798981,392.650574 
	C360.471008,390.902313 360.958618,388.229431 360.089386,386.904541 
	C357.609650,383.124878 352.512756,385.082825 352.442902,389.792297 
	C352.925018,389.626953 353.362976,389.456360 353.812653,389.326385 
	C355.175049,388.932587 356.541962,388.554535 357.907135,388.170319 
	C357.637451,389.620392 357.759369,391.325439 357.016052,392.467133 
	C355.501801,394.792999 353.521027,396.815155 351.966309,399.632355 
M358.682861,264.252289 
	C359.443115,263.167725 360.703796,262.141083 360.837677,260.984039 
	C361.007202,259.519562 360.742981,257.230530 359.794647,256.592987 
	C358.380920,255.642593 356.090820,255.318298 354.394989,255.703201 
	C353.263794,255.959961 352.517731,257.913452 351.308929,259.485168 
	C354.224243,258.907562 356.069061,258.542084 357.913849,258.176575 
	C357.192169,260.118561 356.736755,262.223206 355.676636,263.958405 
	C354.536316,265.824738 352.828705,267.344452 351.068451,269.359009 
	C355.047760,269.359009 358.143799,269.359009 361.239838,269.359009 
	C361.227112,269.020966 361.214417,268.682922 361.201721,268.344849 
	C359.574371,268.088928 357.947021,267.833008 355.806091,267.496338 
	C356.915588,266.235291 357.559235,265.503723 358.682861,264.252289 
M478.309052,443.323853 
	C478.082581,448.429199 478.607452,448.695190 488.020538,447.348755 
	C486.825562,443.809265 485.949005,440.345428 484.331848,437.271149 
	C484.060303,436.754913 480.583893,437.924469 478.588318,438.315094 
	C478.720825,438.746918 478.853333,439.178741 478.985840,439.610565 
	C480.691223,439.455750 482.396606,439.300903 484.101959,439.146088 
	C484.185638,439.564758 484.269318,439.983429 484.352997,440.402100 
	C482.498688,441.209564 480.644379,442.017029 478.309052,443.323853 
M482.657562,318.169525 
	C484.056488,317.969788 485.455414,317.770050 488.379547,317.352539 
	C486.836792,313.493591 485.787079,310.116760 484.025757,307.164490 
	C483.713898,306.641754 480.436523,307.888275 478.528534,308.317810 
	C478.633698,308.750031 478.738861,309.182251 478.844025,309.614471 
	C480.635559,309.614471 482.427124,309.614471 483.851990,309.614471 
	C481.746613,311.648682 479.818573,313.511566 477.890503,315.374481 
	C479.234894,316.318146 480.579315,317.261810 482.657562,318.169525 
M267.195038,391.520813 
	C268.747284,388.052704 267.098999,386.077332 263.937469,385.169373 
	C261.141235,384.366394 259.260193,386.077026 258.740326,389.627869 
	C259.230133,389.557587 259.687775,389.532196 260.123932,389.421967 
	C261.613739,389.045502 263.096039,388.639221 264.581177,388.244263 
	C264.109192,389.829742 263.975677,391.645264 263.089447,392.949158 
	C261.594208,395.149017 259.621918,397.024597 257.430450,399.513245 
	C261.557953,399.513245 264.615723,399.513245 267.673523,399.513245 
	C267.697632,399.201416 267.721741,398.889587 267.745850,398.577759 
	C266.043091,398.216064 264.340363,397.854370 262.320435,397.425323 
	C264.060730,395.401215 265.453979,393.780762 267.195038,391.520813 
M263.539398,265.911560 
	C264.792236,264.379883 266.538269,263.017456 267.140503,261.262512 
	C267.614807,259.880310 267.211487,257.458588 266.225372,256.514282 
	C265.168396,255.502045 262.818390,255.102997 261.322266,255.507462 
	C260.001495,255.864517 259.079407,257.696167 257.635620,259.248291 
	C260.852112,258.871277 262.805450,258.642334 264.758759,258.413391 
	C263.832458,260.366577 263.074188,262.425323 261.932343,264.243134 
	C260.807495,266.033905 259.294037,267.580566 257.156494,270.212860 
	C261.667206,269.981903 264.682220,269.827545 268.783142,269.617584 
	C266.038757,268.083405 264.552307,267.252472 263.539398,265.911560 
M287.677155,270.048553 
	C289.490540,270.048553 291.303925,270.048553 293.117279,270.048553 
	C293.127533,269.546844 293.137787,269.045105 293.148041,268.543396 
	C291.554230,268.216553 289.960449,267.889709 287.885620,267.464203 
	C289.419098,265.548096 291.146912,264.090088 291.898102,262.236359 
	C292.538208,260.656586 292.770264,258.151703 291.933075,256.876709 
	C289.497742,253.167877 284.421051,255.099625 284.283142,259.078552 
	C286.145111,258.880066 288.079346,258.673889 290.013580,258.467712 
	C289.109924,260.415131 288.407379,262.494049 287.244720,264.272095 
	C286.135742,265.968079 284.547180,267.350464 282.550446,269.553772 
	C284.705200,269.800446 285.786896,269.924286 287.677155,270.048553 
M290.360168,389.213257 
	C288.065002,392.609497 285.769867,396.005737 283.390564,399.526489 
	C286.906494,399.526489 289.990875,399.526489 293.075287,399.526489 
	C293.099609,399.198364 293.123932,398.870270 293.148254,398.542145 
	C291.553680,398.214722 289.959106,397.887268 287.888885,397.462158 
	C289.422638,395.544769 291.151367,394.085846 291.901611,392.231140 
	C292.540558,390.651520 292.768127,388.145233 291.929016,386.871643 
	C289.488220,383.166962 284.410858,385.105591 284.285217,389.085114 
	C286.147491,388.875671 288.082672,388.657990 290.360168,389.213257 
M553.154846,311.697327 
	C553.345215,313.751465 553.535583,315.805573 553.725952,317.859711 
	C554.170654,317.787598 554.615417,317.715485 555.060181,317.643402 
	C555.058289,314.009369 557.134338,309.934845 552.848389,307.147247 
	C550.926331,305.897156 548.640747,305.206116 546.627930,304.309418 
	C546.627930,308.386047 546.627930,313.108612 546.627930,317.831177 
	C547.072144,317.851379 547.516296,317.871552 547.960510,317.891724 
	C548.060120,315.872528 547.986816,313.823090 548.332336,311.846893 
	C548.505127,310.858948 549.391418,309.304199 550.046692,309.256165 
	C551.002197,309.186066 552.040283,310.242889 553.154846,311.697327 
M627.432190,308.014832 
	C626.695496,309.753418 625.958801,311.492004 624.968018,313.830261 
	C623.421570,310.969574 622.306396,308.906769 620.774170,306.072479 
	C619.001831,312.235443 627.253540,316.566864 620.926208,321.969330 
	C622.433838,321.834381 624.049561,321.748383 624.331726,321.090454 
	C626.218079,316.692017 627.820129,312.171631 629.514404,307.690796 
	C628.961365,307.605591 628.408386,307.520416 627.432190,308.014832 
M499.650269,444.779144 
	C500.259766,441.427063 500.087708,438.457855 496.256439,436.993744 
	C494.256958,436.229645 492.336456,435.258881 490.291595,434.341675 
	C490.291595,438.316376 490.291595,442.992920 490.291595,449.314606 
	C493.854614,447.807495 496.596222,446.647797 499.650269,444.779144 
M490.081085,304.363403 
	C490.081085,308.799683 490.081085,313.235992 490.081085,317.597473 
	C492.028290,317.833405 493.779388,318.595764 494.916016,318.058411 
	C496.764954,317.184296 499.435089,315.548828 499.542023,314.074005 
	C499.702454,311.861267 498.083160,307.650818 496.978363,307.569183 
	C493.800232,307.334290 492.252197,305.531250 490.081085,304.363403 
M603.770508,313.274292 
	C603.955566,314.813995 604.140686,316.353699 604.325745,317.893402 
	C607.476501,308.434387 605.837524,306.377594 597.347778,307.512970 
	C597.347778,310.973694 597.347778,314.393005 597.347778,317.812286 
	C597.781250,317.832367 598.214722,317.852448 598.648193,317.872528 
	C598.752136,316.193665 598.605286,314.446808 599.036133,312.856476 
	C599.408203,311.483063 600.437317,310.287659 601.175964,309.013550 
	C602.038574,310.141205 602.901245,311.268890 603.770508,313.274292 
M538.889954,447.415894 
	C539.536499,446.045990 540.161255,444.665253 540.835449,443.309143 
	C541.553955,441.863892 542.319214,440.441925 543.064087,439.009796 
	C543.901123,440.484467 544.973633,441.880035 545.503967,443.457794 
	C545.963135,444.823822 545.807190,446.396576 545.923157,447.877960 
	C546.605164,447.826355 547.287109,447.774780 547.969055,447.723175 
	C547.546143,444.528046 547.914185,440.859222 546.394226,438.321075 
	C545.526672,436.872375 541.581421,437.266785 538.662964,436.770233 
	C538.662964,440.699982 538.662964,443.664917 538.889954,447.415894 
M1127.014893,35.441444 
	C1128.247437,32.152454 1127.623657,29.026001 1124.176514,28.224293 
	C1122.100586,27.741493 1118.469482,28.747782 1117.471558,30.315855 
	C1116.509888,31.827074 1117.257080,35.604572 1118.635010,37.171364 
	C1121.200562,40.088451 1124.291016,38.946365 1127.014893,35.441444 
M502.868256,316.548004 
	C503.532654,317.024963 504.300110,318.002106 504.843231,317.890259 
	C506.939117,317.458557 510.161011,317.209381 510.737885,315.906738 
	C511.636505,313.877441 511.280884,310.798798 510.339233,308.655975 
	C509.865265,307.577423 506.222076,306.608429 505.265839,307.306763 
	C503.561462,308.551483 502.647949,311.030884 501.748505,313.140930 
	C501.447296,313.847534 502.197815,315.002472 502.868256,316.548004 
M507.377228,436.937439 
	C503.615906,436.746307 501.465729,438.847168 501.830902,442.279816 
	C502.047272,444.313721 503.696259,447.027832 505.429596,447.799286 
	C506.770752,448.396179 509.989532,446.990326 511.049042,445.520233 
	C512.966858,442.859192 512.259644,439.822998 509.506561,437.632874 
	C509.132599,437.335419 508.619751,437.212494 507.377228,436.937439 
M580.701782,307.018585 
	C578.887695,307.767700 577.073608,308.516846 575.259460,309.265930 
	C577.040588,311.364746 578.821716,313.463562 581.184326,316.247528 
	C578.851562,315.915436 577.018372,315.654480 574.853088,315.346222 
	C576.410522,319.110596 579.905334,319.227814 581.679443,317.509918 
	C587.590515,311.786316 577.842957,312.906860 577.640625,308.975037 
	C579.487061,309.228821 581.095398,309.449890 583.429749,309.770752 
	C582.469177,308.589966 581.919128,307.913849 580.701782,307.018585 
M596.940430,437.653290 
	C594.850586,437.923645 591.544434,437.469635 590.878479,438.587891 
	C587.761475,443.822266 595.469788,442.145630 596.019592,446.284607 
	C593.812317,445.948181 591.958618,445.665619 589.784119,445.334198 
	C591.463928,449.105652 594.940063,449.245514 596.763977,447.458923 
	C602.519348,441.821228 592.874390,442.868683 592.627014,438.731842 
	C594.350403,439.164917 595.654175,439.515778 596.978882,439.747162 
	C597.036377,439.757172 597.285706,438.668884 596.940430,437.653290 
M332.243958,39.307472 
	C332.243195,34.809937 332.349670,30.308163 332.172028,25.817619 
	C332.122864,24.574560 331.229126,23.364908 330.722900,22.139942 
	C330.123199,23.266462 329.049713,24.374849 329.005768,25.522631 
	C328.814789,30.512577 328.815826,35.518089 329.004730,40.508179 
	C329.048279,41.659199 330.108795,42.771721 330.701324,43.901970 
	C331.215118,42.686340 331.728882,41.470707 332.243958,39.307472 
M514.075500,312.437103 
	C514.665894,318.445038 515.156250,318.721954 522.395264,317.348236 
	C522.395264,313.967224 522.395264,310.639709 522.395264,307.312225 
	C521.908447,307.301727 521.421631,307.291260 520.934814,307.280762 
	C520.934814,309.018066 521.257874,310.839935 520.832275,312.465851 
	C520.493896,313.758606 519.240479,314.811890 518.393311,315.971527 
	C517.669678,314.864929 516.558167,313.836945 516.314209,312.633087 
	C515.957275,310.871826 516.222412,308.984467 516.222412,307.150848 
	C515.623413,307.139221 515.024475,307.127625 514.425476,307.115997 
	C514.308594,308.601349 514.191711,310.086731 514.075500,312.437103 
M523.028320,438.998596 
	C522.757935,438.375031 522.487549,437.751434 522.217163,437.127869 
	C521.088745,438.986542 521.304565,440.786621 520.845581,442.394073 
	C520.471619,443.703979 519.290405,444.783417 518.467163,445.965057 
	C517.717163,444.720306 516.691895,443.557922 516.288269,442.209503 
	C515.806763,440.601135 515.857849,438.833313 515.678162,437.134552 
	C512.538208,446.737183 514.310303,448.962250 523.048584,447.193481 
	C523.048584,444.804108 523.048584,442.343536 523.028320,438.998596 
M527.407898,317.462494 
	C528.439453,317.658081 529.471008,317.853638 529.602051,317.878479 
	C529.602051,314.294556 529.602051,311.000214 529.602051,306.712189 
	C529.497681,306.596283 528.465881,305.450226 527.266846,304.118408 
	C523.962585,308.447540 527.015930,312.740143 527.407898,317.462494 
M539.185974,306.308136 
	C537.374634,311.290192 539.996033,317.878235 542.602295,317.509552 
	C542.602295,314.082306 542.602295,310.795563 542.602295,306.658142 
	C540.869629,304.915039 540.869629,304.915039 539.185974,306.308136 
M530.148499,446.402374 
	C527.343445,443.397064 528.218628,440.582825 530.579346,437.850830 
	C529.562866,436.667999 528.546326,435.485168 527.364929,434.110443 
	C523.751038,438.305145 527.158142,442.645447 526.897949,446.805237 
	C528.129089,446.851776 529.360168,446.898315 530.148499,446.402374 
M614.440857,316.632019 
	C615.566650,317.146973 616.692444,317.661957 617.185059,317.887299 
	C617.185059,314.103180 617.185059,310.798035 617.185059,306.735229 
	C616.916138,306.422211 615.968994,305.319946 615.021912,304.217682 
	C614.563477,304.322449 614.104980,304.427216 613.646545,304.531952 
	C613.827515,308.315277 614.008423,312.098572 614.440857,316.632019 
M587.411743,441.752380 
	C587.242004,440.213379 587.072266,438.674377 586.902527,437.135345 
	C586.471924,437.179810 586.041321,437.224274 585.610657,437.268738 
	C585.252991,442.115967 584.895264,446.963196 584.503418,452.273071 
	C589.266174,450.127686 586.679688,445.803040 587.411743,441.752380 
M550.335388,395.027435 
	C549.405090,396.321991 548.474731,397.616547 547.544373,398.911102 
	C548.839050,399.258759 550.533386,400.297821 551.353271,399.823975 
	C553.779968,398.421387 552.977112,396.648193 550.335388,395.027435 
z"/>
<path fill="#ECEDF0" opacity="1.000000" stroke="none" 
	d="
M297.320221,163.918457 
	C296.621002,158.017502 293.600311,155.864426 288.190674,156.886719 
	C287.386780,157.038635 286.529449,156.907867 285.696838,156.907867 
	C276.986389,156.907852 277.108948,156.954956 274.061646,164.884109 
	C273.542664,166.234512 271.551239,167.699554 270.092285,167.873734 
	C266.491241,168.303635 262.804382,168.014664 258.427490,168.014664 
	C260.338684,162.406982 262.106049,157.271408 263.839691,152.124466 
	C267.821716,140.302505 271.873779,128.502823 275.693115,116.628380 
	C276.546753,113.974365 277.673004,112.868011 280.557434,113.024612 
	C285.199982,113.276672 289.866211,113.092285 294.917877,113.092285 
	C301.040649,131.249832 307.138245,149.332565 313.437897,168.014664 
	C309.275543,168.014664 305.643097,167.754166 302.067566,168.093506 
	C298.964081,168.388031 297.894043,166.905746 297.320221,163.918457 
M281.739105,141.061813 
	C281.290497,142.609558 280.841888,144.157303 280.297974,146.033936 
	C284.166016,146.033936 287.590820,146.033936 291.701019,146.033936 
	C289.849731,140.139145 288.122162,134.638245 286.394592,129.137344 
	C286.058441,129.222168 285.722290,129.306976 285.386169,129.391785 
	C284.235077,133.025360 283.084015,136.658920 281.739105,141.061813 
z"/>
<path fill="#ECEDF0" opacity="1.000000" stroke="none" 
	d="
M397.176270,113.672539 
	C408.290649,116.141228 413.920532,123.969353 412.774017,134.904327 
	C411.769165,144.488388 404.212280,150.923828 393.836761,151.010300 
	C390.692413,151.036514 387.547638,151.014374 383.890137,151.014374 
	C383.890137,156.603577 383.890137,161.988892 383.890137,167.687073 
	C378.988739,167.687073 374.591675,167.687073 370.115417,167.687073 
	C370.115417,149.568161 370.115417,131.482056 370.115417,113.555031 
	C379.174072,113.555031 387.968872,113.555031 397.176270,113.672539 
M383.706451,132.509216 
	C383.706451,134.948502 383.706451,137.387787 383.706451,140.216705 
	C388.789429,139.867203 394.328888,142.167099 397.078552,136.809875 
	C398.347473,134.337585 398.344238,129.879150 396.893036,127.624611 
	C393.972321,123.087181 388.719452,123.821457 383.706421,124.321213 
	C383.706421,126.924110 383.706421,129.226624 383.706451,132.509216 
z"/>
<path fill="#ECEDF0" opacity="1.000000" stroke="none" 
	d="
M454.604858,157.568420 
	C450.194824,166.494064 442.830261,169.418152 433.822723,168.921921 
	C425.689362,168.473862 419.263763,164.827271 416.334930,156.993286 
	C413.187805,148.575439 413.456482,140.112625 419.638397,132.986862 
	C425.796997,125.888046 434.057648,125.033081 442.550537,127.334351 
	C450.563873,129.505661 455.338837,135.287613 456.064056,143.496323 
	C456.461975,148.000488 455.253204,152.646561 454.604858,157.568420 
M429.386871,153.517197 
	C430.590454,156.711472 432.904053,159.769867 436.180359,158.518417 
	C438.699005,157.556351 441.257202,154.291153 441.951782,151.577637 
	C442.794891,148.283951 442.332825,144.274429 441.202545,141.000259 
	C440.522491,139.030273 437.485870,136.670715 435.523224,136.684021 
	C433.549805,136.697418 430.434204,139.105087 429.881653,141.049683 
	C428.839844,144.715698 429.279175,148.802597 429.386871,153.517197 
z"/>
<path fill="#ECEDF0" opacity="1.000000" stroke="none" 
	d="
M562.783081,132.221008 
	C563.980286,134.718735 564.953918,136.932480 566.402405,140.225952 
	C560.423035,138.985062 554.959656,142.430710 550.750427,136.881287 
	C549.970764,135.853363 547.271057,135.743317 545.634094,136.076706 
	C544.355103,136.337204 543.349731,137.941132 542.222778,138.948090 
	C543.222168,139.923019 544.068176,141.434235 545.249695,141.771957 
	C548.746826,142.771515 552.396240,143.221817 555.949829,144.043671 
	C562.828125,145.634460 566.285706,148.954819 566.679932,154.157562 
	C567.098633,159.684189 563.709839,164.614304 557.526184,167.038849 
	C549.876892,170.038055 542.223755,169.905380 534.848938,166.167801 
	C530.274048,163.849228 528.428040,160.712296 527.876587,155.014084 
	C531.546509,155.014084 535.183472,154.907898 538.806335,155.086472 
	C539.747681,155.132874 540.655029,156.052750 541.560730,156.599960 
	C543.058838,157.505081 544.624756,159.290848 546.014526,159.158325 
	C548.311340,158.939331 550.490723,157.489120 552.719604,156.557800 
	C550.975098,155.349716 549.383972,153.685150 547.451721,153.035553 
	C544.172546,151.933121 540.608154,151.699814 537.290649,150.685684 
	C532.276001,149.152756 528.970764,145.889008 528.505493,140.375656 
	C528.075684,135.281631 530.707581,130.494507 535.943726,128.538849 
	C545.286377,125.049431 554.464966,124.746704 562.783081,132.221008 
z"/>
<path fill="#ECEDF0" opacity="1.000000" stroke="none" 
	d="
M487.436951,139.987671 
	C485.951874,139.390991 484.954590,138.686203 483.855591,138.222672 
	C481.826752,137.366974 479.754944,136.138962 477.668304,136.070953 
	C476.401886,136.029694 475.074036,137.873047 473.773773,138.869751 
	C474.897430,139.900742 475.861633,141.482498 477.173828,141.862381 
	C481.617767,143.148926 486.340973,143.574341 490.671814,145.126053 
	C499.146606,148.162537 500.788483,157.810135 494.155823,163.924911 
	C486.899292,170.614929 470.759552,170.927216 463.629150,164.146240 
	C461.394165,162.020813 460.155640,158.847580 457.744080,155.014481 
	C462.962494,155.014481 466.578461,154.874252 470.171112,155.102173 
	C471.213074,155.168274 472.148499,156.365952 473.202667,156.909286 
	C475.053467,157.863266 476.963684,159.416733 478.838806,159.402176 
	C480.616119,159.388397 482.380310,157.685242 484.150269,156.725052 
	C482.659424,155.484711 481.352417,153.695724 479.638428,153.121521 
	C476.363281,152.024323 472.803009,151.811417 469.457275,150.884338 
	C463.385712,149.201920 460.280182,145.463440 460.087677,140.083313 
	C459.881653,134.325500 462.661224,130.235641 468.629639,128.026001 
	C475.086304,125.635612 481.661987,125.589523 488.119537,128.005707 
	C493.345490,129.961105 496.576233,133.613419 497.050903,139.988388 
	C493.798004,139.988388 490.838409,139.988388 487.436951,139.987671 
z"/>
<path fill="#E9EBED" opacity="1.000000" stroke="none" 
	d="
M513.926392,168.293579 
	C507.086609,166.010147 504.952820,163.231766 504.863922,156.522141 
	C504.780121,150.197266 504.845917,143.870422 504.845917,137.351776 
	C503.124146,137.099075 501.525726,136.864487 499.612183,136.583633 
	C499.612183,133.634018 499.612183,130.713608 499.612183,127.407562 
	C501.155029,127.165833 502.887909,126.894333 504.866577,126.584320 
	C504.866577,123.573441 504.866577,120.593216 504.866577,117.311272 
	C509.351471,117.311272 513.593262,117.311272 518.329102,117.311272 
	C518.329102,120.299507 518.329102,123.374603 518.329102,126.725571 
	C520.913574,126.878082 523.031860,127.003090 525.498474,127.148643 
	C525.498474,130.216858 525.498474,133.264816 525.498474,136.652557 
	C523.370544,136.803253 521.279846,136.951324 518.622559,137.139526 
	C518.622559,143.300842 518.300476,149.419342 518.867554,155.454269 
	C518.996094,156.822159 522.211243,157.900009 524.989380,159.775528 
	C525.302246,161.264832 525.910034,164.157730 526.803528,168.410431 
	C522.317688,168.410431 518.318359,168.410431 513.926392,168.293579 
z"/>
<path fill="#374151" opacity="1.000000" stroke="none" 
	d="
M338.000000,218.000473 
	C604.138550,218.000473 869.777100,218.000473 1135.415649,218.000473 
	C1135.415649,218.211868 1135.415771,218.423248 1135.415771,218.634644 
	C843.071960,218.634644 550.728149,218.634644 258.384308,218.634644 
	C258.382904,218.423248 258.381470,218.211868 258.380066,218.000473 
	C284.753387,218.000473 311.126678,218.000473 338.000000,218.000473 
z"/>
<path fill="#E9EBED" opacity="1.000000" stroke="none" 
	d="
M316.843445,156.953217 
	C316.843445,142.179947 316.843445,127.899559 316.843445,113.352951 
	C321.437988,113.352951 325.680786,113.352951 330.243164,113.352951 
	C330.243164,131.433426 330.243164,149.470581 330.243164,167.765228 
	C325.887054,167.765228 321.633423,167.765228 316.843414,167.765228 
	C316.843414,164.317551 316.843414,160.881836 316.843445,156.953217 
z"/>
<path fill="#E9EBED" opacity="1.000000" stroke="none" 
	d="
M349.926361,121.082703 
	C349.926361,136.866089 349.926361,152.161880 349.926361,167.738129 
	C345.347107,167.738129 341.102905,167.738129 336.576508,167.738129 
	C336.576508,149.623917 336.576508,131.569260 336.576508,113.299576 
	C340.977478,113.299576 345.088531,113.299576 349.926361,113.299576 
	C349.926361,115.747871 349.926361,118.171494 349.926361,121.082703 
z"/>
<path fill="#E2E6E4" opacity="1.000000" stroke="none" 
	d="
M509.856445,267.712921 
	C505.880280,272.442566 496.971039,270.962250 493.868683,265.519348 
	C488.530426,272.391968 481.049194,272.394775 478.047058,265.257538 
	C479.689331,265.068756 481.253632,264.888947 481.755859,264.831207 
	C480.781097,262.021576 478.762787,259.023834 479.228516,256.481079 
	C479.504639,254.973724 483.637482,253.477325 486.149139,253.255508 
	C489.116882,252.993423 491.884399,254.495102 492.674255,258.948608 
	C489.315186,258.291107 486.531281,257.746216 483.747375,257.201294 
	C483.651825,257.583984 483.556274,257.966675 483.460754,258.349335 
	C487.004456,260.111206 490.548157,261.873077 493.985199,263.581879 
	C496.913818,262.198181 500.538177,260.485718 504.162567,258.773285 
	C504.230865,258.433441 504.299194,258.093597 504.367523,257.753754 
	C501.559692,258.056274 498.751892,258.358826 495.472015,258.712219 
	C496.444763,253.808884 499.795502,252.966415 503.313141,253.180817 
	C506.866425,253.397369 509.750824,255.047546 509.844666,259.271545 
	C509.903748,261.930115 509.859283,264.591034 509.856445,267.712921 
M486.364044,264.100433 
	C485.254669,264.100433 484.145294,264.100433 482.355652,264.100433 
	C485.537628,267.314880 485.537628,267.314880 486.364044,264.100433 
z"/>
<path fill="#E2E6E4" opacity="1.000000" stroke="none" 
	d="
M524.705200,387.258118 
	C525.635498,386.980103 526.632812,386.539368 527.007996,385.787994 
	C528.721008,382.357880 530.987183,383.556793 533.892883,383.980225 
	C535.607727,384.230164 537.699402,380.226135 539.806641,380.019226 
	C541.294250,379.873077 543.154724,382.837311 544.632507,384.594757 
	C544.749084,384.733459 542.504089,386.295502 542.500244,387.200867 
	C542.487549,390.205261 542.860474,393.235870 543.379822,396.204956 
	C543.567993,397.280457 544.585999,398.210846 545.325745,399.363983 
	C538.651917,401.095123 536.978394,399.741547 536.575684,393.695221 
	C536.367188,390.565399 535.380188,387.487488 534.589661,383.628387 
	C528.358765,390.408325 528.358765,390.408325 532.285400,400.611908 
	C529.886414,399.261597 527.487366,397.911255 525.321594,396.692200 
	C523.509094,397.809143 521.075073,399.309082 518.641052,400.809021 
	C518.150696,400.410065 517.660339,400.011078 517.169983,399.612091 
	C522.693787,394.405060 522.325623,389.107208 517.479980,383.955658 
	C521.599609,382.180054 523.354736,383.949219 524.705200,387.258118 
z"/>
<path fill="#E9EBED" opacity="1.000000" stroke="none" 
	d="
M484.148499,379.521301 
	C486.621857,383.119415 488.894623,386.396423 491.951477,390.803925 
	C491.951477,385.906647 491.951477,382.129059 491.951477,378.185669 
	C494.119232,378.185669 495.567139,378.185669 497.202209,378.185669 
	C497.202209,385.328369 497.202209,392.293793 497.202209,399.973480 
	C489.315796,400.179443 489.297882,391.779938 484.095734,388.447479 
	C484.095734,392.311554 484.095734,395.968140 484.095734,399.810852 
	C481.982452,399.810852 480.544006,399.810852 478.889771,399.810852 
	C478.889771,392.600525 478.889771,385.509277 478.889771,377.584717 
	C480.790192,378.191650 482.369080,378.695892 484.148499,379.521301 
z"/>
<path fill="#13A898" opacity="1.000000" stroke="none" 
	d="
M314.982544,21.978029 
	C317.240997,22.147575 319.168060,21.976494 320.837585,22.552256 
	C325.370667,24.115551 325.933868,28.080257 323.397675,31.212782 
	C324.170380,34.832909 325.587341,37.659203 325.108307,40.115765 
	C324.380310,43.849010 320.780151,44.146145 317.450012,44.061394 
	C314.983582,43.998619 312.514282,44.049049 309.723572,44.049049 
	C309.723572,36.666409 309.723572,29.740602 309.723572,22.302839 
	C311.372864,22.191473 312.953278,22.084761 314.982544,21.978029 
M313.190948,39.256256 
	C315.752930,39.547653 318.314911,39.839050 320.876892,40.130444 
	C320.951996,38.677048 321.530884,36.208748 321.012299,35.951336 
	C319.082520,34.993427 316.797211,34.504261 314.633118,34.461624 
	C314.164337,34.452385 313.644684,37.027321 313.190948,39.256256 
M314.741791,25.108448 
	C314.080536,26.843525 313.419312,28.578604 312.333038,31.428900 
	C316.362000,30.713633 320.122650,32.922993 320.858643,28.433012 
	C321.460541,24.761000 318.065369,25.118935 314.741791,25.108448 
z"/>
<path fill="#E2E6E4" opacity="1.000000" stroke="none" 
	d="
M555.836670,255.130112 
	C556.683350,258.015900 557.421875,260.533844 558.165588,263.069366 
	C562.223022,260.781952 558.295349,251.903198 567.230652,253.556442 
	C564.862610,260.154968 562.774231,266.536316 560.264221,272.747253 
	C558.869324,276.198883 557.128540,276.566925 550.603027,275.483154 
	C552.532410,273.551270 553.907715,272.174194 555.812561,270.266937 
	C554.127319,265.296692 552.192383,259.589996 549.737610,252.350311 
	C552.547302,253.481491 554.137939,254.121872 555.836670,255.130112 
z"/>
<path fill="#13A898" opacity="1.000000" stroke="none" 
	d="
M361.015625,43.963806 
	C354.764130,42.419613 352.746277,39.327454 353.865112,33.432930 
	C354.609558,29.510712 357.018738,27.243382 361.057037,27.230873 
	C363.400391,27.223614 365.745300,27.729584 368.818909,28.090176 
	C368.818909,33.736267 369.250153,39.839584 368.552216,45.810921 
	C368.346802,47.568436 365.165039,49.614296 362.954926,50.351242 
	C359.690643,51.439701 356.624847,50.251488 354.322083,46.940948 
	C358.138672,46.665886 361.385132,46.489380 364.602448,46.082619 
	C364.840179,46.052555 364.868378,44.364964 365.048462,43.050110 
	C363.543671,43.419228 362.478516,43.680508 361.015625,43.963806 
M364.192352,31.721699 
	C362.327545,31.671007 359.022858,31.133266 358.846802,31.653820 
	C358.078552,33.924858 357.852264,36.561848 358.230896,38.938232 
	C358.361816,39.759827 361.740936,41.036133 362.050659,40.689217 
	C363.413849,39.162155 364.356873,37.179649 365.113190,35.230659 
	C365.416779,34.448338 364.848694,33.327785 364.192352,31.721699 
z"/>
<path fill="#E9EBED" opacity="1.000000" stroke="none" 
	d="
M505.871826,400.116272 
	C500.138855,397.315369 498.382843,392.364532 500.998993,387.350677 
	C503.010254,383.496185 507.592163,382.042877 511.681244,384.009918 
	C515.348938,385.774261 516.191223,388.904541 515.960266,392.904602 
	C512.285034,392.904602 508.835846,392.904602 505.386627,392.904602 
	C505.182739,393.438080 504.978821,393.971558 504.774933,394.505035 
	C506.412628,395.143890 508.053894,396.298340 509.687164,396.287079 
	C511.596527,396.273987 513.498962,395.244324 516.203735,394.408783 
	C514.106873,400.173218 510.536682,400.895599 505.871826,400.116272 
z"/>
<path fill="#E9EBED" opacity="1.000000" stroke="none" 
	d="
M523.719055,269.219666 
	C523.564026,266.974365 523.635681,265.136963 523.507263,263.313660 
	C523.344116,260.996246 524.365112,257.609070 520.612122,257.737579 
	C519.655518,257.770294 518.457520,261.147980 518.022522,263.131805 
	C517.574646,265.174500 517.923035,267.391754 517.923035,269.772308 
	C516.177063,269.772308 514.761780,269.772308 513.151001,269.772308 
	C513.151001,264.400879 513.151001,259.136139 513.151001,253.864395 
	C516.618958,253.619644 520.171387,252.609177 523.244812,253.418289 
	C525.304565,253.960556 527.583435,256.856018 528.155396,259.107300 
	C528.987000,262.380371 528.368774,266.021759 528.368774,270.045776 
	C526.666565,269.890350 525.261719,269.762115 523.719055,269.219666 
z"/>
<path fill="#E2E6E4" opacity="1.000000" stroke="none" 
	d="
M577.901611,397.776245 
	C571.671204,402.243500 566.244324,401.219177 563.795166,394.815338 
	C565.806458,395.185211 567.450684,395.491302 569.096497,395.789124 
	C570.457886,396.035400 571.821106,396.271759 573.183472,396.512543 
	C573.286682,395.892426 573.389832,395.272339 573.492981,394.652222 
	C571.535278,394.095642 569.347229,393.908203 567.688232,392.872955 
	C566.193115,391.939941 564.397339,390.104919 564.352173,388.618561 
	C564.306396,387.111267 565.905701,384.964081 567.373596,384.111664 
	C571.726074,381.584259 576.132751,383.327057 578.579590,388.896667 
	C575.193542,388.207275 572.416077,387.641785 568.454895,386.835297 
	C571.439819,391.899109 581.534668,388.626221 577.901611,397.776245 
z"/>
<path fill="#E2E6E4" opacity="1.000000" stroke="none" 
	d="
M598.381470,268.354492 
	C594.621826,271.078552 590.524902,271.697174 587.631897,268.736633 
	C585.643066,266.701477 584.676147,262.964600 584.592651,259.951172 
	C584.491455,256.300720 587.365845,253.443939 590.926392,253.444595 
	C593.713135,253.445114 597.312927,254.673386 599.105042,256.660553 
	C602.188965,260.080048 601.489075,264.370239 598.381470,268.354492 
M589.768738,264.483521 
	C591.217041,265.017151 592.665283,265.550781 594.113586,266.084381 
	C594.611877,263.977509 595.490112,261.861145 595.437683,259.768066 
	C595.413818,258.814697 593.550598,257.907410 592.521729,256.979248 
	C591.441895,258.425720 590.233276,259.799011 589.348450,261.356293 
	C589.014832,261.943451 589.430908,262.956604 589.768738,264.483521 
z"/>
<path fill="#E9EBED" opacity="1.000000" stroke="none" 
	d="
M267.079834,31.898552 
	C267.239563,27.255398 270.766785,27.082018 273.991760,27.190624 
	C277.326477,27.302931 279.630798,29.268257 279.800812,32.821423 
	C279.973328,36.427273 279.838898,40.047806 279.838898,43.480637 
	C276.860260,43.927547 274.201050,44.982864 271.873566,44.485630 
	C269.677307,44.016434 266.943848,42.334888 266.038422,40.430046 
	C264.704315,37.623329 266.629181,35.428246 269.800598,34.783932 
	C271.722076,34.393555 273.638733,33.979492 275.757080,33.534122 
	C275.813751,30.208300 274.186127,29.611265 271.387817,30.643211 
	C270.070007,31.129187 268.727478,31.548201 267.079834,31.898552 
M273.915070,41.086594 
	C274.724060,39.933464 275.533020,38.780331 276.342010,37.627201 
	C276.017792,37.181858 275.693604,36.736511 275.369385,36.291168 
	C273.368134,37.218246 271.366882,38.145325 269.365631,39.072411 
	C270.645844,39.824566 271.926086,40.576717 273.915070,41.086594 
z"/>
<path fill="#E9EBED" opacity="1.000000" stroke="none" 
	d="
M282.956482,36.009575 
	C282.956482,32.901131 282.956482,30.270348 282.956482,27.850357 
	C286.197296,27.566242 289.118500,26.711380 291.735504,27.273252 
	C293.769714,27.709995 296.532196,29.614859 297.011688,31.394932 
	C297.935913,34.826397 297.632599,38.638676 297.457520,42.274708 
	C297.421448,43.023392 295.719727,43.691868 293.923645,45.048473 
	C293.923645,40.761581 294.266144,37.764637 293.788788,34.904533 
	C293.523529,33.315201 291.890625,31.954138 290.874115,30.490192 
	C289.618256,31.906464 287.606750,33.165768 287.272797,34.773537 
	C286.680511,37.624847 287.106598,40.687691 287.106598,43.819603 
	C285.674713,43.893612 284.536438,43.952442 282.956482,44.034100 
	C282.956482,41.419556 282.956482,38.953392 282.956482,36.009575 
z"/>
<path fill="#E2E6E4" opacity="1.000000" stroke="none" 
	d="
M546.869873,253.170273 
	C547.754578,254.277328 548.815918,256.131561 548.659363,256.240814 
	C542.910645,260.252960 545.643738,264.109467 548.689514,268.033417 
	C548.936707,268.351837 548.790405,268.975647 548.825684,269.440704 
	C542.734863,271.149414 540.975708,269.763519 540.567505,263.721375 
	C540.396118,261.184814 538.654358,258.662964 538.830383,256.221222 
	C538.990356,254.001328 540.245239,251.086105 541.982605,249.938354 
	C544.494385,248.279007 545.865112,250.706940 546.869873,253.170273 
z"/>
<path fill="#13A898" opacity="1.000000" stroke="none" 
	d="
M349.553162,41.523388 
	C346.612427,44.760048 342.826782,45.614830 339.975586,43.468170 
	C337.743439,41.787571 335.897156,38.098671 335.940521,35.334393 
	C335.979736,32.834904 338.253113,29.423018 340.523987,28.099514 
	C345.540710,25.175707 351.135773,29.317055 351.109375,35.547729 
	C351.101349,37.445515 350.246643,39.339718 349.553162,41.523388 
M343.484619,30.182562 
	C339.720947,30.968630 338.725494,33.786400 339.380280,36.927322 
	C339.710327,38.510368 341.355560,40.432663 342.841766,40.950066 
	C343.867950,41.307331 346.317139,39.864613 346.946320,38.625195 
	C348.524719,35.515858 347.909882,32.509377 344.676819,30.487875 
	C344.537567,30.400793 344.375977,30.349396 343.484619,30.182562 
z"/>
<path fill="#E2E6E4" opacity="1.000000" stroke="none" 
	d="
M553.730530,403.140808 
	C554.616150,401.344391 555.887817,399.915771 555.972107,398.420319 
	C556.242004,393.627838 556.072449,388.810577 556.072449,383.592529 
	C557.687195,383.463989 559.061646,383.354553 561.017395,383.198853 
	C561.017395,389.679718 561.371216,395.808502 560.778870,401.844391 
	C560.622742,403.435272 557.569336,404.777252 555.721436,406.052460 
	C555.637451,406.110382 554.317383,404.377014 553.730530,403.140808 
z"/>
<path fill="#839194" opacity="1.000000" stroke="none" 
	d="
M568.019409,437.549927 
	C570.286804,436.709930 572.279968,436.145599 574.995789,435.376678 
	C575.150330,435.551819 576.163452,436.699829 576.199463,436.740631 
	C576.199463,440.983063 576.199463,444.120270 576.199463,447.425964 
	C573.483459,447.901337 573.412598,447.756531 573.040649,443.884888 
	C572.843750,441.835663 572.255920,439.823975 571.733521,437.247772 
	C566.467896,440.799530 567.215271,444.202454 570.631897,447.927307 
	C570.156189,448.033173 569.680481,448.139008 569.204834,448.244873 
	C568.091736,447.243256 566.978638,446.241638 565.737549,445.124817 
	C564.637146,446.128906 563.527771,447.141144 562.418457,448.153381 
	C563.130737,444.350006 565.709290,440.769287 560.582886,437.531097 
	C561.123901,437.299438 561.664917,437.067780 562.205933,436.836121 
	C563.381897,437.869781 564.557861,438.903473 565.918457,440.099426 
	C566.534973,439.332062 567.140076,438.578857 568.019409,437.549927 
z"/>
<path fill="#13A898" opacity="1.000000" stroke="none" 
	d="
M301.154968,385.947662 
	C302.159454,385.598999 303.522583,385.307190 303.594208,385.498627 
	C304.034607,386.675446 304.667938,388.109497 304.339813,389.183960 
	C303.267303,392.695831 308.482208,396.777802 303.948334,399.459076 
	C300.817047,398.302429 298.137878,397.312805 294.701599,396.043518 
	C296.775818,392.767639 298.846222,389.497742 301.154968,385.947662 
z"/>
<path fill="#13A898" opacity="1.000000" stroke="none" 
	d="
M302.201447,269.263245 
	C299.898438,268.086151 297.771667,267.253326 294.700012,266.050537 
	C297.183136,262.198669 299.667053,258.345551 302.151001,254.492432 
	C302.688568,254.716263 303.226135,254.940109 303.763702,255.163956 
	C304.304840,258.813080 304.845978,262.462219 305.559723,267.275421 
	C305.174408,267.557831 303.776031,268.582672 302.201447,269.263245 
z"/>
<path fill="#13A898" opacity="1.000000" stroke="none" 
	d="
M368.845581,397.503113 
	C366.858765,397.257080 365.258392,397.125336 362.324982,396.883881 
	C365.344421,392.220612 367.834930,388.374237 370.776154,383.831787 
	C373.626007,389.798096 373.662109,397.144318 371.297607,400.097717 
	C370.577515,399.233093 369.904755,398.425262 368.845581,397.503113 
z"/>
<path fill="#13A898" opacity="1.000000" stroke="none" 
	d="
M363.424500,265.975647 
	C365.707184,261.894196 368.030945,258.170502 370.354736,254.446808 
	C370.913025,254.702438 371.471313,254.958069 372.029602,255.213699 
	C372.565002,258.886749 373.100403,262.559784 373.760620,267.089203 
	C373.558289,267.387146 372.740265,268.591614 372.141052,269.473877 
	C369.129120,268.383575 366.297363,267.358490 363.424500,265.975647 
z"/>
<path fill="#13A898" opacity="1.000000" stroke="none" 
	d="
M336.609802,263.016846 
	C334.632538,262.832153 333.025024,262.832153 330.903412,262.832153 
	C331.216522,260.191711 331.498474,257.813873 331.827698,255.037537 
	C334.772369,255.182266 337.265167,255.304779 339.757996,255.427292 
	C339.817749,255.905731 339.877533,256.384186 339.937317,256.862610 
	C337.995392,257.383087 336.053467,257.903564 332.994324,258.723480 
	C337.200562,260.821747 342.287903,261.486176 340.361877,266.818085 
	C339.810760,268.343811 337.251373,269.849548 335.485565,270.016235 
	C333.970001,270.159332 332.272797,268.378082 331.294464,266.638397 
	C333.332581,266.823944 335.370697,267.009521 337.408813,267.195099 
	C337.265717,265.863922 337.122620,264.532745 336.609802,263.016846 
z"/>
<path fill="#13A898" opacity="1.000000" stroke="none" 
	d="
M337.979309,395.738495 
	C336.087372,394.169220 334.162201,393.004120 332.237000,391.839020 
	C331.742218,392.112701 331.247437,392.386383 330.752625,392.660065 
	C331.306976,390.242676 331.111420,386.898895 332.628479,385.670807 
	C334.118439,384.464661 337.348358,385.407867 339.814728,385.407867 
	C339.857513,385.890015 339.900330,386.372192 339.943146,386.854340 
	C337.981201,387.424561 336.019226,387.994751 335.072418,388.269928 
	C337.022644,390.958984 339.174866,393.400208 340.508850,396.227478 
	C340.763611,396.767426 337.918945,399.711304 336.271484,399.951782 
	C334.498291,400.210663 332.451263,398.593811 329.485168,397.365112 
	C333.469635,396.789429 335.707855,396.466064 337.979309,395.738495 
z"/>
<path fill="#839194" opacity="1.000000" stroke="none" 
	d="
M562.775635,318.215698 
	C557.786255,316.961792 555.595032,312.964691 558.190308,309.543579 
	C559.299255,308.081757 562.342407,306.854828 563.933105,307.352936 
	C565.393616,307.810272 567.080139,310.863464 566.856140,312.529541 
	C566.585876,314.540619 567.576416,318.538696 562.775635,318.215698 
M563.698181,315.926697 
	C563.713379,312.995972 563.713379,312.995972 559.661438,314.760895 
	C560.969482,315.384125 561.887573,315.821533 563.698181,315.926697 
z"/>
<path fill="#E2E6E4" opacity="1.000000" stroke="none" 
	d="
M531.938354,254.052307 
	C535.270081,252.466843 536.796448,253.281723 536.641785,256.920898 
	C536.465759,261.061005 536.601074,265.214355 536.601074,269.722656 
	C534.960693,269.836731 533.569336,269.933472 531.757751,270.059418 
	C531.757751,264.628082 531.757751,259.525879 531.938354,254.052307 
z"/>
<path fill="#ECEDF0" opacity="1.000000" stroke="none" 
	d="
M262.037292,30.452541 
	C262.038025,35.527611 261.821472,40.164680 262.103058,44.771297 
	C262.360016,48.975109 260.625336,50.488060 255.729584,49.960716 
	C261.170471,43.390087 258.072144,36.012463 259.054108,29.097740 
	C259.150452,28.419079 260.187378,27.873983 260.787750,27.266895 
	C261.204193,28.178354 261.620605,29.089813 262.037292,30.452541 
z"/>
<path fill="#E2E6E4" opacity="1.000000" stroke="none" 
	d="
M577.144714,254.131927 
	C578.677490,253.563812 580.057617,253.383453 581.720642,253.166107 
	C581.720642,258.980133 581.720642,264.230286 581.720642,269.757324 
	C580.247498,269.757324 578.846680,269.757324 576.992004,269.757324 
	C576.992004,264.666779 576.992004,259.593231 577.144714,254.131927 
z"/>
<path fill="#13A898" opacity="1.000000" stroke="none" 
	d="
M323.644409,270.163818 
	C319.809875,270.434235 317.638733,268.431488 317.667908,265.343689 
	C317.696899,262.274841 318.546814,258.957123 320.036285,256.311188 
	C320.498016,255.490952 324.932617,255.672668 326.324860,256.846619 
	C330.208160,260.121002 328.670654,267.424683 323.644409,270.163818 
M320.100494,265.012451 
	C321.191071,265.969604 322.281677,266.926788 323.372253,267.883942 
	C324.192169,266.580048 325.837799,265.146515 325.657745,263.999573 
	C325.298004,261.707458 323.937683,259.572357 322.990540,257.372437 
	C321.981384,259.323273 320.956268,261.266235 319.982574,263.234619 
	C319.855255,263.492035 319.991821,263.879974 320.100494,265.012451 
z"/>
<path fill="#13A898" opacity="1.000000" stroke="none" 
	d="
M317.230896,392.186584 
	C317.747223,388.531891 318.692322,385.149078 322.570221,385.246216 
	C324.330658,385.290344 327.370483,387.476776 327.496063,388.897675 
	C327.790863,392.233704 327.444092,396.099274 325.913788,398.985291 
	C324.500488,401.650757 319.591705,400.422028 318.228882,397.367981 
	C317.579712,395.913300 317.536926,394.188080 317.230896,392.186584 
M325.875732,393.406250 
	C324.728333,391.409698 323.580933,389.413177 322.433533,387.416626 
	C321.608704,389.216034 320.211487,390.989807 320.129517,392.822449 
	C320.056335,394.459930 321.434753,396.162323 322.172638,397.836090 
	C323.386841,396.625488 324.601044,395.414886 325.875732,393.406250 
z"/>
<path fill="#13A898" opacity="1.000000" stroke="none" 
	d="
M277.989197,269.816254 
	C274.346283,270.671387 271.130554,270.016846 270.855957,266.332184 
	C270.609039,263.018799 271.129822,259.108002 272.786316,256.344482 
	C274.453705,253.562820 278.926880,254.871887 280.254913,258.344116 
	C281.789795,262.357208 282.061462,266.431763 277.989197,269.816254 
M273.006653,265.024628 
	C273.945343,265.987335 274.884033,266.950043 275.822723,267.912750 
	C276.702362,266.851624 278.269196,265.820160 278.316589,264.723114 
	C278.411072,262.534363 277.764435,260.284729 277.184753,258.124420 
	C277.088776,257.766602 275.169708,257.477905 275.122986,257.589294 
	C274.284149,259.588928 273.600311,261.653870 272.897583,263.709717 
	C272.847809,263.855408 272.908936,264.039032 273.006653,265.024628 
z"/>
<path fill="#13A898" opacity="1.000000" stroke="none" 
	d="
M281.141724,393.709656 
	C280.711182,397.477264 279.623718,400.265015 275.484253,400.196075 
	C271.585480,400.131134 270.485687,397.294556 270.193787,394.220123 
	C269.840332,390.497131 270.179718,386.698578 274.510956,385.253906 
	C278.186981,384.027802 280.686676,387.178009 281.141724,393.709656 
M273.645416,388.674683 
	C273.466614,390.952515 272.963837,393.274536 273.265564,395.486847 
	C273.389404,396.395111 275.247833,397.066864 276.317230,397.846191 
	C277.062622,395.653229 278.362946,393.467621 278.391968,391.265198 
	C278.419128,389.205078 277.845001,386.092865 273.645416,388.674683 
z"/>
<path fill="#839194" opacity="1.000000" stroke="none" 
	d="
M551.111694,446.809998 
	C550.501587,444.816040 549.684692,443.034271 549.860413,441.356476 
	C550.215149,437.969116 552.593018,436.258575 555.835510,437.083832 
	C558.811646,437.841339 560.339172,439.558685 558.917419,443.323273 
	C556.834290,448.838898 556.744873,449.203369 551.111694,446.809998 
M554.790466,446.325226 
	C555.673706,445.777191 556.556946,445.229187 557.440247,444.681152 
	C557.274536,444.255066 557.108826,443.828949 556.943115,443.402863 
	C555.490662,443.594971 554.038147,443.787079 552.585693,443.979218 
	C553.032349,444.692017 553.479004,445.404846 554.790466,446.325226 
z"/>
<path fill="#839194" opacity="1.000000" stroke="none" 
	d="
M594.409729,313.938171 
	C594.859924,317.107697 593.706726,318.523376 590.928040,317.959503 
	C589.021301,317.572540 585.904907,317.058533 585.589722,315.955444 
	C584.107727,310.768494 590.010376,312.588867 592.541809,309.552216 
	C589.918335,309.552216 588.091980,309.552216 586.265564,309.552216 
	C586.120239,309.200256 585.974854,308.848297 585.829468,308.496338 
	C587.670288,307.996887 590.446289,306.515228 591.162415,307.197083 
	C592.784363,308.741272 593.390869,311.351868 594.409729,313.938171 
z"/>
<path fill="#13A898" opacity="1.000000" stroke="none" 
	d="
M351.849426,399.297424 
	C353.521027,396.815155 355.501801,394.792999 357.016052,392.467133 
	C357.759369,391.325439 357.637451,389.620392 357.907104,388.170349 
	C356.541962,388.554535 355.175049,388.932587 353.812653,389.326385 
	C353.362976,389.456360 352.925018,389.626953 352.442902,389.792297 
	C352.512756,385.082825 357.609650,383.124878 360.089386,386.904541 
	C360.958618,388.229431 360.471008,390.902313 359.798981,392.650574 
	C359.139862,394.365387 357.458618,395.687256 355.983246,397.475800 
	C358.067322,397.887848 359.690735,398.208832 361.314148,398.529785 
	C361.296478,398.897308 361.278839,399.264832 361.261200,399.632355 
	C358.162903,399.632355 355.064606,399.632355 351.849426,399.297424 
z"/>
<path fill="#13A898" opacity="1.000000" stroke="none" 
	d="
M358.442871,264.512207 
	C357.559235,265.503723 356.915588,266.235291 355.806091,267.496338 
	C357.947021,267.833008 359.574371,268.088928 361.201721,268.344849 
	C361.214417,268.682922 361.227112,269.020966 361.239838,269.359009 
	C358.143799,269.359009 355.047760,269.359009 351.068451,269.359009 
	C352.828705,267.344452 354.536316,265.824738 355.676636,263.958405 
	C356.736755,262.223206 357.192169,260.118561 357.913849,258.176575 
	C356.069061,258.542084 354.224243,258.907562 351.308929,259.485168 
	C352.517731,257.913452 353.263794,255.959961 354.394989,255.703201 
	C356.090820,255.318298 358.380920,255.642593 359.794647,256.592987 
	C360.742981,257.230530 361.007202,259.519562 360.837677,260.984039 
	C360.703796,262.141083 359.443115,263.167725 358.442871,264.512207 
z"/>
<path fill="#839194" opacity="1.000000" stroke="none" 
	d="
M478.549561,443.074158 
	C480.644379,442.017029 482.498688,441.209564 484.352997,440.402100 
	C484.269318,439.983429 484.185638,439.564758 484.101959,439.146088 
	C482.396606,439.300903 480.691223,439.455750 478.985840,439.610565 
	C478.853333,439.178741 478.720825,438.746918 478.588318,438.315094 
	C480.583893,437.924469 484.060303,436.754913 484.331848,437.271149 
	C485.949005,440.345428 486.825562,443.809265 488.020538,447.348755 
	C478.607452,448.695190 478.082581,448.429199 478.549561,443.074158 
z"/>
<path fill="#839194" opacity="1.000000" stroke="none" 
	d="
M482.290649,318.187500 
	C480.579315,317.261810 479.234894,316.318146 477.890503,315.374451 
	C479.818573,313.511566 481.746613,311.648682 483.851990,309.614471 
	C482.427124,309.614471 480.635559,309.614471 478.844025,309.614471 
	C478.738861,309.182251 478.633698,308.750031 478.528534,308.317810 
	C480.436523,307.888275 483.713898,306.641754 484.025757,307.164490 
	C485.787079,310.116760 486.836792,313.493591 488.379547,317.352539 
	C485.455414,317.770050 484.056488,317.969788 482.290649,318.187500 
z"/>
<path fill="#13A898" opacity="1.000000" stroke="none" 
	d="
M267.021118,391.840576 
	C265.453979,393.780762 264.060730,395.401215 262.320435,397.425323 
	C264.340363,397.854370 266.043091,398.216064 267.745850,398.577759 
	C267.721741,398.889587 267.697632,399.201416 267.673523,399.513245 
	C264.615723,399.513245 261.557953,399.513245 257.430450,399.513245 
	C259.621918,397.024597 261.594208,395.149017 263.089447,392.949158 
	C263.975677,391.645264 264.109192,389.829742 264.581177,388.244263 
	C263.096039,388.639221 261.613739,389.045502 260.123932,389.421967 
	C259.687775,389.532196 259.230133,389.557587 258.740326,389.627869 
	C259.260193,386.077026 261.141235,384.366394 263.937469,385.169373 
	C267.098999,386.077332 268.747284,388.052704 267.021118,391.840576 
z"/>
<path fill="#13A898" opacity="1.000000" stroke="none" 
	d="
M263.302643,266.166534 
	C264.552307,267.252472 266.038757,268.083405 268.783142,269.617584 
	C264.682220,269.827545 261.667206,269.981903 257.156494,270.212860 
	C259.294037,267.580566 260.807495,266.033905 261.932343,264.243134 
	C263.074188,262.425323 263.832458,260.366577 264.758759,258.413391 
	C262.805450,258.642334 260.852112,258.871277 257.635620,259.248291 
	C259.079407,257.696167 260.001495,255.864517 261.322266,255.507462 
	C262.818390,255.102997 265.168396,255.502045 266.225372,256.514282 
	C267.211487,257.458588 267.614807,259.880310 267.140503,261.262512 
	C266.538269,263.017456 264.792236,264.379883 263.302643,266.166534 
z"/>
<path fill="#13A898" opacity="1.000000" stroke="none" 
	d="
M287.272888,270.048340 
	C285.786896,269.924286 284.705200,269.800446 282.550446,269.553772 
	C284.547180,267.350464 286.135742,265.968079 287.244720,264.272095 
	C288.407379,262.494049 289.109924,260.415131 290.013550,258.467712 
	C288.079346,258.673889 286.145111,258.880066 284.283142,259.078552 
	C284.421051,255.099625 289.497742,253.167877 291.933075,256.876709 
	C292.770264,258.151703 292.538208,260.656586 291.898102,262.236359 
	C291.146912,264.090088 289.419098,265.548096 287.885620,267.464203 
	C289.960449,267.889709 291.554230,268.216553 293.148041,268.543396 
	C293.137787,269.045105 293.127533,269.546844 293.117279,270.048553 
	C291.303925,270.048553 289.490540,270.048553 287.272888,270.048340 
z"/>
<path fill="#13A898" opacity="1.000000" stroke="none" 
	d="
M290.189026,388.826782 
	C288.082672,388.657990 286.147491,388.875671 284.285217,389.085114 
	C284.410858,385.105591 289.488220,383.166962 291.929016,386.871643 
	C292.768127,388.145233 292.540558,390.651520 291.901611,392.231140 
	C291.151367,394.085846 289.422638,395.544769 287.888885,397.462158 
	C289.959106,397.887268 291.553680,398.214722 293.148254,398.542145 
	C293.123932,398.870270 293.099609,399.198364 293.075287,399.526489 
	C289.990875,399.526489 286.906494,399.526489 283.390564,399.526489 
	C285.769867,396.005737 288.065002,392.609497 290.189026,388.826782 
z"/>
<path fill="#839194" opacity="1.000000" stroke="none" 
	d="
M553.098999,311.258301 
	C552.040283,310.242889 551.002197,309.186066 550.046692,309.256165 
	C549.391418,309.304199 548.505127,310.858948 548.332336,311.846893 
	C547.986816,313.823090 548.060120,315.872528 547.960510,317.891724 
	C547.516296,317.871552 547.072144,317.851379 546.627930,317.831177 
	C546.627930,313.108612 546.627930,308.386047 546.627930,304.309418 
	C548.640747,305.206116 550.926331,305.897156 552.848389,307.147247 
	C557.134338,309.934845 555.058289,314.009369 555.060181,317.643402 
	C554.615417,317.715485 554.170654,317.787598 553.725952,317.859711 
	C553.535583,315.805573 553.345215,313.751465 553.098999,311.258301 
z"/>
<path fill="#839194" opacity="1.000000" stroke="none" 
	d="
M627.643799,307.725037 
	C628.408386,307.520416 628.961365,307.605591 629.514404,307.690796 
	C627.820129,312.171631 626.218079,316.692017 624.331726,321.090454 
	C624.049561,321.748383 622.433838,321.834381 620.926208,321.969330 
	C627.253540,316.566864 619.001831,312.235443 620.774170,306.072479 
	C622.306396,308.906769 623.421570,310.969574 624.968018,313.830261 
	C625.958801,311.492004 626.695496,309.753418 627.643799,307.725037 
z"/>
<path fill="#839194" opacity="1.000000" stroke="none" 
	d="
M499.494049,445.133606 
	C496.596222,446.647797 493.854614,447.807495 490.291595,449.314606 
	C490.291595,442.992920 490.291595,438.316376 490.291595,434.341675 
	C492.336456,435.258881 494.256958,436.229645 496.256439,436.993744 
	C500.087708,438.457855 500.259766,441.427063 499.494049,445.133606 
M493.095917,439.491913 
	C492.738159,440.541992 491.831238,441.809845 492.142395,442.594666 
	C492.708038,444.021118 493.997681,445.160492 494.985168,446.419678 
	C495.934021,445.107513 497.501709,443.880005 497.695282,442.464539 
	C498.036835,439.967682 496.639343,438.431396 493.095917,439.491913 
z"/>
<path fill="#839194" opacity="1.000000" stroke="none" 
	d="
M490.263977,304.002472 
	C492.252197,305.531250 493.800232,307.334290 496.978363,307.569183 
	C498.083160,307.650818 499.702454,311.861267 499.542023,314.074005 
	C499.435089,315.548828 496.764954,317.184296 494.916016,318.058411 
	C493.779388,318.595764 492.028290,317.833405 490.081085,317.597473 
	C490.081085,313.235992 490.081085,308.799683 490.263977,304.002472 
M493.897644,316.181854 
	C497.701141,316.817841 498.099701,314.184570 497.637390,311.670227 
	C497.440735,310.600983 495.520752,309.848663 494.383942,308.952301 
	C493.710815,310.850586 492.990845,312.734924 492.417206,314.662811 
	C492.335114,314.938721 492.960449,315.425110 493.897644,316.181854 
z"/>
<path fill="#839194" opacity="1.000000" stroke="none" 
	d="
M603.767212,312.835419 
	C602.901245,311.268890 602.038574,310.141205 601.175964,309.013550 
	C600.437317,310.287659 599.408203,311.483063 599.036133,312.856476 
	C598.605286,314.446808 598.752136,316.193665 598.648193,317.872528 
	C598.214722,317.852448 597.781250,317.832367 597.347778,317.812286 
	C597.347778,314.393005 597.347778,310.973694 597.347778,307.512970 
	C605.837524,306.377594 607.476501,308.434387 604.325745,317.893402 
	C604.140686,316.353699 603.955566,314.813995 603.767212,312.835419 
z"/>
<path fill="#839194" opacity="1.000000" stroke="none" 
	d="
M538.776489,447.022888 
	C538.662964,443.664917 538.662964,440.699982 538.662964,436.770233 
	C541.581421,437.266785 545.526672,436.872375 546.394226,438.321075 
	C547.914185,440.859222 547.546143,444.528046 547.969055,447.723175 
	C547.287109,447.774780 546.605164,447.826355 545.923157,447.877960 
	C545.807190,446.396576 545.963135,444.823822 545.503967,443.457794 
	C544.973633,441.880035 543.901123,440.484467 543.064087,439.009796 
	C542.319214,440.441925 541.553955,441.863892 540.835449,443.309143 
	C540.161255,444.665253 539.536499,446.045990 538.776489,447.022888 
z"/>
<path fill="#E2E6E4" opacity="1.000000" stroke="none" 
	d="
M1126.832275,35.763958 
	C1124.291016,38.946365 1121.200562,40.088451 1118.635010,37.171364 
	C1117.257080,35.604572 1116.509888,31.827074 1117.471558,30.315855 
	C1118.469482,28.747782 1122.100586,27.741493 1124.176514,28.224293 
	C1127.623657,29.026001 1128.247437,32.152454 1126.832275,35.763958 
M1124.312622,30.189358 
	C1122.479492,30.596451 1120.517944,30.754347 1118.903931,31.586258 
	C1118.501343,31.793739 1118.759766,34.631989 1119.551758,35.429409 
	C1120.343506,36.226532 1123.186523,36.497894 1123.389526,36.103497 
	C1124.223511,34.483673 1124.394287,32.522266 1124.312622,30.189358 
z"/>
<path fill="#839194" opacity="1.000000" stroke="none" 
	d="
M502.667908,316.250244 
	C502.197815,315.002472 501.447296,313.847534 501.748505,313.140930 
	C502.647949,311.030884 503.561462,308.551483 505.265839,307.306763 
	C506.222076,306.608429 509.865265,307.577423 510.339233,308.655975 
	C511.280884,310.798798 511.636505,313.877441 510.737885,315.906738 
	C510.161011,317.209381 506.939117,317.458557 504.843231,317.890259 
	C504.300110,318.002106 503.532654,317.024963 502.667908,316.250244 
M505.693909,316.069336 
	C509.358398,316.840424 510.148682,314.498749 509.655457,311.809937 
	C509.449066,310.684814 507.601074,309.860809 506.499481,308.899902 
	C505.725769,310.737701 504.906036,312.558899 504.228790,314.431580 
	C504.129364,314.706482 504.706573,315.226044 505.693909,316.069336 
z"/>
<path fill="#839194" opacity="1.000000" stroke="none" 
	d="
M507.774231,436.973083 
	C508.619751,437.212494 509.132599,437.335419 509.506561,437.632874 
	C512.259644,439.822998 512.966858,442.859192 511.049042,445.520233 
	C509.989532,446.990326 506.770752,448.396179 505.429596,447.799286 
	C503.696259,447.027832 502.047272,444.313721 501.830902,442.279816 
	C501.465729,438.847168 503.615906,436.746307 507.774231,436.973083 
M509.269257,440.236206 
	C507.066895,438.052582 505.052948,438.232605 504.180634,441.239197 
	C503.804565,442.535461 504.580688,444.320709 505.249481,445.678955 
	C505.474060,446.135040 507.656036,446.295959 507.799469,446.012634 
	C508.603088,444.425293 509.056732,442.660767 509.269257,440.236206 
z"/>
<path fill="#839194" opacity="1.000000" stroke="none" 
	d="
M581.035461,307.128174 
	C581.919128,307.913849 582.469177,308.589966 583.429749,309.770752 
	C581.095398,309.449890 579.487061,309.228821 577.640625,308.975037 
	C577.842957,312.906860 587.590515,311.786316 581.679443,317.509918 
	C579.905334,319.227814 576.410522,319.110596 574.853088,315.346222 
	C577.018372,315.654480 578.851562,315.915436 581.184326,316.247528 
	C578.821716,313.463562 577.040588,311.364746 575.259460,309.265930 
	C577.073608,308.516846 578.887695,307.767700 581.035461,307.128174 
z"/>
<path fill="#839194" opacity="1.000000" stroke="none" 
	d="
M597.193054,437.872742 
	C597.285706,438.668884 597.036377,439.757172 596.978882,439.747162 
	C595.654175,439.515778 594.350403,439.164917 592.627014,438.731842 
	C592.874390,442.868683 602.519348,441.821228 596.763977,447.458923 
	C594.940063,449.245514 591.463928,449.105652 589.784119,445.334198 
	C591.958618,445.665619 593.812317,445.948181 596.019592,446.284607 
	C595.469788,442.145630 587.761475,443.822266 590.878479,438.587891 
	C591.544434,437.469635 594.850586,437.923645 597.193054,437.872742 
z"/>
<path fill="#13A898" opacity="1.000000" stroke="none" 
	d="
M332.243317,39.781273 
	C331.728882,41.470707 331.215118,42.686340 330.701355,43.901962 
	C330.108795,42.771721 329.048279,41.659199 329.004730,40.508179 
	C328.815826,35.518089 328.814789,30.512577 329.005768,25.522631 
	C329.049713,24.374849 330.123199,23.266462 330.722900,22.139935 
	C331.229126,23.364908 332.122864,24.574560 332.172028,25.817619 
	C332.349670,30.308163 332.243195,34.809937 332.243317,39.781273 
z"/>
<path fill="#839194" opacity="1.000000" stroke="none" 
	d="
M514.075195,312.004578 
	C514.191711,310.086731 514.308594,308.601349 514.425476,307.115997 
	C515.024475,307.127625 515.623413,307.139221 516.222412,307.150848 
	C516.222412,308.984467 515.957275,310.871826 516.314209,312.633087 
	C516.558167,313.836945 517.669678,314.864929 518.393311,315.971527 
	C519.240479,314.811890 520.493896,313.758606 520.832275,312.465851 
	C521.257874,310.839935 520.934814,309.018066 520.934814,307.280762 
	C521.421631,307.291260 521.908447,307.301727 522.395264,307.312225 
	C522.395264,310.639709 522.395264,313.967224 522.395264,317.348236 
	C515.156250,318.721954 514.665894,318.445038 514.075195,312.004578 
z"/>
<path fill="#839194" opacity="1.000000" stroke="none" 
	d="
M523.038452,439.440796 
	C523.048584,442.343536 523.048584,444.804108 523.048584,447.193481 
	C514.310303,448.962250 512.538208,446.737183 515.678162,437.134552 
	C515.857849,438.833313 515.806763,440.601135 516.288269,442.209503 
	C516.691895,443.557922 517.717163,444.720306 518.467163,445.965057 
	C519.290405,444.783417 520.471619,443.703979 520.845581,442.394073 
	C521.304565,440.786621 521.088745,438.986542 522.217163,437.127869 
	C522.487549,437.751434 522.757935,438.375031 523.038452,439.440796 
z"/>
<path fill="#839194" opacity="1.000000" stroke="none" 
	d="
M527.180664,317.195923 
	C527.015930,312.740143 523.962585,308.447540 527.266846,304.118408 
	C528.465881,305.450226 529.497681,306.596283 529.602051,306.712189 
	C529.602051,311.000214 529.602051,314.294556 529.602051,317.878479 
	C529.471008,317.853638 528.439453,317.658081 527.180664,317.195923 
z"/>
<path fill="#839194" opacity="1.000000" stroke="none" 
	d="
M539.288940,305.994171 
	C540.869629,304.915039 540.869629,304.915039 542.602295,306.658142 
	C542.602295,310.795563 542.602295,314.082306 542.602295,317.509552 
	C539.996033,317.878235 537.374634,311.290192 539.288940,305.994171 
z"/>
<path fill="#839194" opacity="1.000000" stroke="none" 
	d="
M530.369873,446.673645 
	C529.360168,446.898315 528.129089,446.851776 526.897949,446.805237 
	C527.158142,442.645447 523.751038,438.305145 527.364929,434.110443 
	C528.546326,435.485168 529.562866,436.667999 530.585815,437.848602 
	C528.218628,440.582825 527.343445,443.397064 530.369873,446.673645 
z"/>
<path fill="#839194" opacity="1.000000" stroke="none" 
	d="
M614.315063,316.256958 
	C614.008423,312.098572 613.827515,308.315277 613.646545,304.531952 
	C614.104980,304.427216 614.563477,304.322449 615.021912,304.217682 
	C615.968994,305.319946 616.916138,306.422211 617.185059,306.735229 
	C617.185059,310.798035 617.185059,314.103180 617.185059,317.887299 
	C616.692444,317.661957 615.566650,317.146973 614.315063,316.256958 
z"/>
<path fill="#839194" opacity="1.000000" stroke="none" 
	d="
M587.411377,442.191895 
	C586.679688,445.803040 589.266174,450.127686 584.503418,452.273071 
	C584.895264,446.963196 585.252991,442.115967 585.610657,437.268738 
	C586.041321,437.224274 586.471924,437.179810 586.902527,437.135345 
	C587.072266,438.674377 587.242004,440.213379 587.411377,442.191895 
z"/>
<path fill="#E2E6E4" opacity="1.000000" stroke="none" 
	d="
M550.695435,395.117249 
	C552.977112,396.648193 553.779968,398.421387 551.353271,399.823975 
	C550.533386,400.297821 548.839050,399.258759 547.544373,398.911102 
	C548.474731,397.616547 549.405090,396.321991 550.695435,395.117249 
z"/>
<path fill="#111827" opacity="1.000000" stroke="none" 
	d="
M281.835999,140.677155 
	C283.084015,136.658920 284.235077,133.025360 285.386169,129.391785 
	C285.722290,129.306976 286.058441,129.222168 286.394592,129.137344 
	C288.122162,134.638245 289.849731,140.139145 291.701019,146.033936 
	C287.590820,146.033936 284.166016,146.033936 280.297974,146.033936 
	C280.841888,144.157303 281.290497,142.609558 281.835999,140.677155 
z"/>
<path fill="#111827" opacity="1.000000" stroke="none" 
	d="
M383.706421,132.019180 
	C383.706421,129.226624 383.706421,126.924110 383.706421,124.321213 
	C388.719452,123.821457 393.972321,123.087181 396.893036,127.624611 
	C398.344238,129.879150 398.347473,134.337585 397.078552,136.809875 
	C394.328888,142.167099 388.789429,139.867203 383.706451,140.216705 
	C383.706451,137.387787 383.706451,134.948502 383.706421,132.019180 
z"/>
<path fill="#111827" opacity="1.000000" stroke="none" 
	d="
M429.244873,153.115875 
	C429.279175,148.802597 428.839844,144.715698 429.881653,141.049683 
	C430.434204,139.105087 433.549805,136.697418 435.523224,136.684021 
	C437.485870,136.670715 440.522491,139.030273 441.202545,141.000259 
	C442.332825,144.274429 442.794891,148.283951 441.951782,151.577637 
	C441.257202,154.291153 438.699005,157.556351 436.180359,158.518417 
	C432.904053,159.769867 430.590454,156.711472 429.244873,153.115875 
z"/>
<path fill="#111827" opacity="1.000000" stroke="none" 
	d="
M486.832275,264.453796 
	C485.537628,267.314880 485.537628,267.314880 482.355652,264.100433 
	C484.145294,264.100433 485.254669,264.100433 486.832275,264.453796 
z"/>
<path fill="#111827" opacity="1.000000" stroke="none" 
	d="
M313.169678,38.834122 
	C313.644684,37.027321 314.164337,34.452385 314.633118,34.461624 
	C316.797211,34.504261 319.082520,34.993427 321.012299,35.951336 
	C321.530884,36.208748 320.951996,38.677048 320.876892,40.130444 
	C318.314911,39.839050 315.752930,39.547653 313.169678,38.834122 
z"/>
<path fill="#111827" opacity="1.000000" stroke="none" 
	d="
M315.162781,25.085251 
	C318.065369,25.118935 321.460541,24.761000 320.858643,28.433012 
	C320.122650,32.922993 316.362000,30.713633 312.333038,31.428900 
	C313.419312,28.578604 314.080536,26.843525 315.162781,25.085251 
z"/>
<path fill="#111827" opacity="1.000000" stroke="none" 
	d="
M364.434875,32.041443 
	C364.848694,33.327785 365.416779,34.448338 365.113190,35.230659 
	C364.356873,37.179649 363.413849,39.162155 362.050659,40.689217 
	C361.740936,41.036133 358.361816,39.759827 358.230896,38.938232 
	C357.852264,36.561848 358.078552,33.924858 358.846802,31.653820 
	C359.022858,31.133266 362.327545,31.671007 364.434875,32.041443 
z"/>
<path fill="#374151" opacity="1.000000" stroke="none" 
	d="
M589.636963,264.129517 
	C589.430908,262.956604 589.014832,261.943451 589.348450,261.356293 
	C590.233276,259.799011 591.441895,258.425720 592.521729,256.979248 
	C593.550598,257.907410 595.413818,258.814697 595.437683,259.768066 
	C595.490112,261.861145 594.611877,263.977509 594.113586,266.084381 
	C592.665283,265.550781 591.217041,265.017151 589.636963,264.129517 
z"/>
<path fill="#111827" opacity="1.000000" stroke="none" 
	d="
M273.560669,41.207733 
	C271.926086,40.576717 270.645844,39.824566 269.365631,39.072411 
	C271.366882,38.145325 273.368134,37.218246 275.369385,36.291168 
	C275.693604,36.736511 276.017792,37.181858 276.342010,37.627201 
	C275.533020,38.780331 274.724060,39.933464 273.560669,41.207733 
z"/>
<path fill="#111827" opacity="1.000000" stroke="none" 
	d="
M343.854706,30.231970 
	C344.375977,30.349396 344.537567,30.400793 344.676819,30.487875 
	C347.909882,32.509377 348.524719,35.515858 346.946320,38.625195 
	C346.317139,39.864613 343.867950,41.307331 342.841766,40.950066 
	C341.355560,40.432663 339.710327,38.510368 339.380280,36.927322 
	C338.725494,33.786400 339.720947,30.968630 343.854706,30.231970 
z"/>
<path fill="#111827" opacity="1.000000" stroke="none" 
	d="
M563.251953,316.092834 
	C561.887573,315.821533 560.969482,315.384125 559.661438,314.760895 
	C563.713379,312.995972 563.713379,312.995972 563.251953,316.092834 
z"/>
<path fill="#111827" opacity="1.000000" stroke="none" 
	d="
M320.053345,264.609955 
	C319.991821,263.879974 319.855255,263.492035 319.982574,263.234619 
	C320.956268,261.266235 321.981384,259.323273 322.990540,257.372437 
	C323.937683,259.572357 325.298004,261.707458 325.657745,263.999573 
	C325.837799,265.146515 324.192169,266.580048 323.372253,267.883942 
	C322.281677,266.926788 321.191071,265.969604 320.053345,264.609955 
z"/>
<path fill="#111827" opacity="1.000000" stroke="none" 
	d="
M325.845490,393.805298 
	C324.601044,395.414886 323.386841,396.625488 322.172638,397.836090 
	C321.434753,396.162323 320.056335,394.459930 320.129517,392.822449 
	C320.211487,390.989807 321.608704,389.216034 322.433533,387.416626 
	C323.580933,389.413177 324.728333,391.409698 325.845490,393.805298 
z"/>
<path fill="#111827" opacity="1.000000" stroke="none" 
	d="
M272.962585,264.614807 
	C272.908936,264.039032 272.847809,263.855408 272.897583,263.709717 
	C273.600311,261.653870 274.284149,259.588928 275.122986,257.589294 
	C275.169708,257.477905 277.088776,257.766602 277.184753,258.124420 
	C277.764435,260.284729 278.411072,262.534363 278.316589,264.723114 
	C278.269196,265.820160 276.702362,266.851624 275.822754,267.912750 
	C274.884033,266.950043 273.945343,265.987335 272.962585,264.614807 
z"/>
<path fill="#111827" opacity="1.000000" stroke="none" 
	d="
M273.908325,388.389221 
	C277.845001,386.092865 278.419128,389.205078 278.391968,391.265198 
	C278.362946,393.467621 277.062622,395.653229 276.317230,397.846191 
	C275.247833,397.066864 273.389404,396.395111 273.265564,395.486847 
	C272.963837,393.274536 273.466614,390.952515 273.908325,388.389221 
z"/>
<path fill="#111827" opacity="1.000000" stroke="none" 
	d="
M554.358032,446.221436 
	C553.479004,445.404846 553.032349,444.692017 552.585693,443.979187 
	C554.038147,443.787079 555.490662,443.594971 556.943115,443.402863 
	C557.108826,443.828949 557.274536,444.255066 557.440247,444.681152 
	C556.556946,445.229187 555.673706,445.777191 554.358032,446.221436 
z"/>
<path fill="#111827" opacity="1.000000" stroke="none" 
	d="
M493.442474,439.293518 
	C496.639343,438.431396 498.036835,439.967682 497.695282,442.464539 
	C497.501709,443.880005 495.934021,445.107513 494.985168,446.419678 
	C493.997681,445.160492 492.708038,444.021118 492.142395,442.594666 
	C491.831238,441.809845 492.738159,440.541992 493.442474,439.293518 
z"/>
<path fill="#111827" opacity="1.000000" stroke="none" 
	d="
M493.578003,315.997986 
	C492.960449,315.425110 492.335114,314.938721 492.417206,314.662811 
	C492.990845,312.734924 493.710815,310.850586 494.383942,308.952301 
	C495.520752,309.848663 497.440735,310.600983 497.637390,311.670227 
	C498.099701,314.184570 497.701141,316.817841 493.578003,315.997986 
z"/>
<path fill="#111827" opacity="1.000000" stroke="none" 
	d="
M1124.560791,30.437943 
	C1124.394287,32.522266 1124.223511,34.483673 1123.389526,36.103497 
	C1123.186523,36.497894 1120.343506,36.226532 1119.551758,35.429409 
	C1118.759766,34.631989 1118.501343,31.793739 1118.903931,31.586258 
	C1120.517944,30.754347 1122.479492,30.596451 1124.560791,30.437943 
z"/>
<path fill="#111827" opacity="1.000000" stroke="none" 
	d="
M505.332306,315.850891 
	C504.706573,315.226044 504.129364,314.706482 504.228790,314.431580 
	C504.906036,312.558899 505.725769,310.737701 506.499481,308.899902 
	C507.601074,309.860809 509.449066,310.684814 509.655457,311.809937 
	C510.148682,314.498749 509.358398,316.840424 505.332306,315.850891 
z"/>
<path fill="#111827" opacity="1.000000" stroke="none" 
	d="
M509.449585,440.596497 
	C509.056732,442.660767 508.603088,444.425293 507.799469,446.012634 
	C507.656036,446.295959 505.474060,446.135040 505.249481,445.678955 
	C504.580688,444.320709 503.804565,442.535461 504.180634,441.239197 
	C505.052948,438.232605 507.066895,438.052582 509.449585,440.596497 
z"/>
</svg>